<mxfile host="Electron" modified="2024-05-23T20:16:32.330Z" agent="Mozilla/5.0 (Windows NT 10.0; Win64; x64) AppleWebKit/537.36 (KHTML, like Gecko) draw.io/24.1.0 Chrome/120.0.6099.109 Electron/28.1.0 Safari/537.36" etag="yOlpJP2_2qsjaLfIXvvy" version="24.1.0" type="device">
  <diagram name="Страница — 1" id="xjDMtovize_fx577Y2BX">
    <mxGraphModel dx="3081" dy="1942" grid="1" gridSize="10" guides="1" tooltips="1" connect="1" arrows="1" fold="1" page="1" pageScale="1" pageWidth="1169" pageHeight="827" math="0" shadow="0">
      <root>
        <mxCell id="0" />
        <mxCell id="1" parent="0" />
        <mxCell id="iRxltRBxoJt_cw-Zhl7R-1" value="АИС&lt;div&gt;&quot;О футбольных клубах&quot;&lt;/div&gt;" style="rounded=0;whiteSpace=wrap;html=1;" parent="1" vertex="1">
          <mxGeometry x="530" y="80" width="140" height="60" as="geometry" />
        </mxCell>
        <mxCell id="iRxltRBxoJt_cw-Zhl7R-2" value="ПС1&lt;div&gt;Администратор&lt;/div&gt;" style="rounded=0;whiteSpace=wrap;html=1;" parent="1" vertex="1">
          <mxGeometry x="120" y="200" width="120" height="60" as="geometry" />
        </mxCell>
        <mxCell id="iRxltRBxoJt_cw-Zhl7R-3" value="ПС2&lt;br&gt;&lt;div&gt;Руководство клубов&lt;/div&gt;" style="rounded=0;whiteSpace=wrap;html=1;" parent="1" vertex="1">
          <mxGeometry x="400" y="200" width="120" height="60" as="geometry" />
        </mxCell>
        <mxCell id="iRxltRBxoJt_cw-Zhl7R-4" value="ПС3&lt;div&gt;Тренер&lt;/div&gt;" style="rounded=0;whiteSpace=wrap;html=1;" parent="1" vertex="1">
          <mxGeometry x="680" y="200" width="120" height="60" as="geometry" />
        </mxCell>
        <mxCell id="iRxltRBxoJt_cw-Zhl7R-5" value="ПС4&lt;div&gt;Игрок&lt;/div&gt;" style="rounded=0;whiteSpace=wrap;html=1;" parent="1" vertex="1">
          <mxGeometry x="960" y="200" width="120" height="60" as="geometry" />
        </mxCell>
        <mxCell id="iRxltRBxoJt_cw-Zhl7R-6" value="" style="endArrow=classic;html=1;rounded=0;exitX=0.5;exitY=1;exitDx=0;exitDy=0;entryX=0.5;entryY=0;entryDx=0;entryDy=0;" parent="1" source="iRxltRBxoJt_cw-Zhl7R-1" target="iRxltRBxoJt_cw-Zhl7R-5" edge="1">
          <mxGeometry width="50" height="50" relative="1" as="geometry">
            <mxPoint x="720" y="370" as="sourcePoint" />
            <mxPoint x="770" y="320" as="targetPoint" />
            <Array as="points">
              <mxPoint x="600" y="160" />
              <mxPoint x="1020" y="160" />
            </Array>
          </mxGeometry>
        </mxCell>
        <mxCell id="iRxltRBxoJt_cw-Zhl7R-7" value="" style="endArrow=classic;html=1;rounded=0;exitX=0.5;exitY=1;exitDx=0;exitDy=0;entryX=0.5;entryY=0;entryDx=0;entryDy=0;" parent="1" source="iRxltRBxoJt_cw-Zhl7R-1" target="iRxltRBxoJt_cw-Zhl7R-4" edge="1">
          <mxGeometry width="50" height="50" relative="1" as="geometry">
            <mxPoint x="490" y="430" as="sourcePoint" />
            <mxPoint x="540" y="380" as="targetPoint" />
            <Array as="points">
              <mxPoint x="600" y="160" />
              <mxPoint x="740" y="160" />
            </Array>
          </mxGeometry>
        </mxCell>
        <mxCell id="iRxltRBxoJt_cw-Zhl7R-8" value="" style="endArrow=classic;html=1;rounded=0;exitX=0.5;exitY=1;exitDx=0;exitDy=0;entryX=0.5;entryY=0;entryDx=0;entryDy=0;" parent="1" source="iRxltRBxoJt_cw-Zhl7R-1" target="iRxltRBxoJt_cw-Zhl7R-3" edge="1">
          <mxGeometry width="50" height="50" relative="1" as="geometry">
            <mxPoint x="210" y="410" as="sourcePoint" />
            <mxPoint x="260" y="360" as="targetPoint" />
            <Array as="points">
              <mxPoint x="600" y="160" />
              <mxPoint x="460" y="160" />
            </Array>
          </mxGeometry>
        </mxCell>
        <mxCell id="iRxltRBxoJt_cw-Zhl7R-9" value="" style="endArrow=classic;html=1;rounded=0;exitX=0.5;exitY=1;exitDx=0;exitDy=0;entryX=0.5;entryY=0;entryDx=0;entryDy=0;" parent="1" source="iRxltRBxoJt_cw-Zhl7R-1" target="iRxltRBxoJt_cw-Zhl7R-2" edge="1">
          <mxGeometry width="50" height="50" relative="1" as="geometry">
            <mxPoint x="620" y="380" as="sourcePoint" />
            <mxPoint x="670" y="330" as="targetPoint" />
            <Array as="points">
              <mxPoint x="600" y="160" />
              <mxPoint x="180" y="160" />
            </Array>
          </mxGeometry>
        </mxCell>
        <mxCell id="iRxltRBxoJt_cw-Zhl7R-39" style="edgeStyle=orthogonalEdgeStyle;rounded=0;orthogonalLoop=1;jettySize=auto;html=1;exitX=0.5;exitY=1;exitDx=0;exitDy=0;entryX=0.5;entryY=0;entryDx=0;entryDy=0;" parent="1" source="iRxltRBxoJt_cw-Zhl7R-10" target="iRxltRBxoJt_cw-Zhl7R-32" edge="1">
          <mxGeometry relative="1" as="geometry" />
        </mxCell>
        <mxCell id="iRxltRBxoJt_cw-Zhl7R-10" value="Ввод и редактирование данных" style="rounded=0;whiteSpace=wrap;html=1;" parent="1" vertex="1">
          <mxGeometry x="50" y="320" width="120" height="60" as="geometry" />
        </mxCell>
        <mxCell id="iRxltRBxoJt_cw-Zhl7R-40" style="edgeStyle=orthogonalEdgeStyle;rounded=0;orthogonalLoop=1;jettySize=auto;html=1;exitX=0.5;exitY=1;exitDx=0;exitDy=0;entryX=0.5;entryY=0;entryDx=0;entryDy=0;" parent="1" source="iRxltRBxoJt_cw-Zhl7R-11" target="iRxltRBxoJt_cw-Zhl7R-33" edge="1">
          <mxGeometry relative="1" as="geometry" />
        </mxCell>
        <mxCell id="iRxltRBxoJt_cw-Zhl7R-11" value="Формирование отчёта" style="rounded=0;whiteSpace=wrap;html=1;" parent="1" vertex="1">
          <mxGeometry x="190" y="320" width="120" height="60" as="geometry" />
        </mxCell>
        <mxCell id="iRxltRBxoJt_cw-Zhl7R-41" style="edgeStyle=orthogonalEdgeStyle;rounded=0;orthogonalLoop=1;jettySize=auto;html=1;exitX=0.5;exitY=1;exitDx=0;exitDy=0;entryX=0.5;entryY=0;entryDx=0;entryDy=0;" parent="1" source="iRxltRBxoJt_cw-Zhl7R-12" target="iRxltRBxoJt_cw-Zhl7R-34" edge="1">
          <mxGeometry relative="1" as="geometry" />
        </mxCell>
        <mxCell id="iRxltRBxoJt_cw-Zhl7R-12" value="Ввод и редактирование данных" style="rounded=0;whiteSpace=wrap;html=1;" parent="1" vertex="1">
          <mxGeometry x="330" y="320" width="120" height="60" as="geometry" />
        </mxCell>
        <mxCell id="iRxltRBxoJt_cw-Zhl7R-42" style="edgeStyle=orthogonalEdgeStyle;rounded=0;orthogonalLoop=1;jettySize=auto;html=1;exitX=0.5;exitY=1;exitDx=0;exitDy=0;entryX=0.5;entryY=0;entryDx=0;entryDy=0;" parent="1" source="iRxltRBxoJt_cw-Zhl7R-13" target="iRxltRBxoJt_cw-Zhl7R-35" edge="1">
          <mxGeometry relative="1" as="geometry" />
        </mxCell>
        <mxCell id="iRxltRBxoJt_cw-Zhl7R-13" value="Формирование отчёта" style="rounded=0;whiteSpace=wrap;html=1;" parent="1" vertex="1">
          <mxGeometry x="470" y="320" width="120" height="60" as="geometry" />
        </mxCell>
        <mxCell id="iRxltRBxoJt_cw-Zhl7R-43" style="edgeStyle=orthogonalEdgeStyle;rounded=0;orthogonalLoop=1;jettySize=auto;html=1;exitX=0.5;exitY=1;exitDx=0;exitDy=0;entryX=0.5;entryY=0;entryDx=0;entryDy=0;" parent="1" source="iRxltRBxoJt_cw-Zhl7R-18" target="iRxltRBxoJt_cw-Zhl7R-36" edge="1">
          <mxGeometry relative="1" as="geometry" />
        </mxCell>
        <mxCell id="iRxltRBxoJt_cw-Zhl7R-18" value="Ввод и редактирование данных" style="rounded=0;whiteSpace=wrap;html=1;" parent="1" vertex="1">
          <mxGeometry x="610" y="320" width="120" height="60" as="geometry" />
        </mxCell>
        <mxCell id="iRxltRBxoJt_cw-Zhl7R-44" style="edgeStyle=orthogonalEdgeStyle;rounded=0;orthogonalLoop=1;jettySize=auto;html=1;exitX=0.5;exitY=1;exitDx=0;exitDy=0;entryX=0.5;entryY=0;entryDx=0;entryDy=0;" parent="1" source="iRxltRBxoJt_cw-Zhl7R-19" target="iRxltRBxoJt_cw-Zhl7R-37" edge="1">
          <mxGeometry relative="1" as="geometry" />
        </mxCell>
        <mxCell id="iRxltRBxoJt_cw-Zhl7R-19" value="Формирование отчёта" style="rounded=0;whiteSpace=wrap;html=1;" parent="1" vertex="1">
          <mxGeometry x="750" y="320" width="120" height="60" as="geometry" />
        </mxCell>
        <mxCell id="iRxltRBxoJt_cw-Zhl7R-45" style="edgeStyle=orthogonalEdgeStyle;rounded=0;orthogonalLoop=1;jettySize=auto;html=1;exitX=0.5;exitY=1;exitDx=0;exitDy=0;entryX=0.5;entryY=0;entryDx=0;entryDy=0;" parent="1" source="iRxltRBxoJt_cw-Zhl7R-21" target="iRxltRBxoJt_cw-Zhl7R-38" edge="1">
          <mxGeometry relative="1" as="geometry" />
        </mxCell>
        <mxCell id="iRxltRBxoJt_cw-Zhl7R-21" value="Формирование отчёта" style="rounded=0;whiteSpace=wrap;html=1;" parent="1" vertex="1">
          <mxGeometry x="960" y="320" width="120" height="60" as="geometry" />
        </mxCell>
        <mxCell id="iRxltRBxoJt_cw-Zhl7R-22" value="" style="endArrow=classic;html=1;rounded=0;exitX=0.5;exitY=1;exitDx=0;exitDy=0;entryX=0.5;entryY=0;entryDx=0;entryDy=0;" parent="1" source="iRxltRBxoJt_cw-Zhl7R-2" target="iRxltRBxoJt_cw-Zhl7R-10" edge="1">
          <mxGeometry width="50" height="50" relative="1" as="geometry">
            <mxPoint x="280" y="300" as="sourcePoint" />
            <mxPoint x="330" y="250" as="targetPoint" />
            <Array as="points">
              <mxPoint x="180" y="280" />
              <mxPoint x="110" y="280" />
            </Array>
          </mxGeometry>
        </mxCell>
        <mxCell id="iRxltRBxoJt_cw-Zhl7R-23" value="" style="endArrow=classic;html=1;rounded=0;exitX=0.5;exitY=1;exitDx=0;exitDy=0;entryX=0.5;entryY=0;entryDx=0;entryDy=0;" parent="1" source="iRxltRBxoJt_cw-Zhl7R-2" target="iRxltRBxoJt_cw-Zhl7R-11" edge="1">
          <mxGeometry width="50" height="50" relative="1" as="geometry">
            <mxPoint x="240" y="310" as="sourcePoint" />
            <mxPoint x="290" y="260" as="targetPoint" />
            <Array as="points">
              <mxPoint x="180" y="280" />
              <mxPoint x="250" y="280" />
            </Array>
          </mxGeometry>
        </mxCell>
        <mxCell id="iRxltRBxoJt_cw-Zhl7R-25" value="" style="endArrow=classic;html=1;rounded=0;exitX=0.5;exitY=1;exitDx=0;exitDy=0;entryX=0.5;entryY=0;entryDx=0;entryDy=0;" parent="1" source="iRxltRBxoJt_cw-Zhl7R-3" target="iRxltRBxoJt_cw-Zhl7R-12" edge="1">
          <mxGeometry width="50" height="50" relative="1" as="geometry">
            <mxPoint x="280" y="290" as="sourcePoint" />
            <mxPoint x="330" y="240" as="targetPoint" />
            <Array as="points">
              <mxPoint x="460" y="280" />
              <mxPoint x="390" y="280" />
            </Array>
          </mxGeometry>
        </mxCell>
        <mxCell id="iRxltRBxoJt_cw-Zhl7R-26" value="" style="endArrow=classic;html=1;rounded=0;exitX=0.5;exitY=1;exitDx=0;exitDy=0;entryX=0.5;entryY=0;entryDx=0;entryDy=0;" parent="1" source="iRxltRBxoJt_cw-Zhl7R-3" target="iRxltRBxoJt_cw-Zhl7R-13" edge="1">
          <mxGeometry width="50" height="50" relative="1" as="geometry">
            <mxPoint x="550" y="290" as="sourcePoint" />
            <mxPoint x="600" y="240" as="targetPoint" />
            <Array as="points">
              <mxPoint x="460" y="280" />
              <mxPoint x="530" y="280" />
            </Array>
          </mxGeometry>
        </mxCell>
        <mxCell id="iRxltRBxoJt_cw-Zhl7R-27" value="" style="endArrow=classic;html=1;rounded=0;exitX=0.5;exitY=1;exitDx=0;exitDy=0;entryX=0.5;entryY=0;entryDx=0;entryDy=0;" parent="1" source="iRxltRBxoJt_cw-Zhl7R-4" target="iRxltRBxoJt_cw-Zhl7R-18" edge="1">
          <mxGeometry width="50" height="50" relative="1" as="geometry">
            <mxPoint x="580" y="300" as="sourcePoint" />
            <mxPoint x="630" y="250" as="targetPoint" />
            <Array as="points">
              <mxPoint x="740" y="280" />
              <mxPoint x="670" y="280" />
            </Array>
          </mxGeometry>
        </mxCell>
        <mxCell id="iRxltRBxoJt_cw-Zhl7R-28" value="" style="endArrow=classic;html=1;rounded=0;exitX=0.5;exitY=1;exitDx=0;exitDy=0;entryX=0.5;entryY=0;entryDx=0;entryDy=0;" parent="1" source="iRxltRBxoJt_cw-Zhl7R-4" target="iRxltRBxoJt_cw-Zhl7R-19" edge="1">
          <mxGeometry width="50" height="50" relative="1" as="geometry">
            <mxPoint x="570" y="290" as="sourcePoint" />
            <mxPoint x="620" y="240" as="targetPoint" />
            <Array as="points">
              <mxPoint x="740" y="280" />
              <mxPoint x="810" y="280" />
            </Array>
          </mxGeometry>
        </mxCell>
        <mxCell id="iRxltRBxoJt_cw-Zhl7R-31" value="" style="endArrow=classic;html=1;rounded=0;exitX=0.5;exitY=1;exitDx=0;exitDy=0;entryX=0.5;entryY=0;entryDx=0;entryDy=0;" parent="1" source="iRxltRBxoJt_cw-Zhl7R-5" target="iRxltRBxoJt_cw-Zhl7R-21" edge="1">
          <mxGeometry width="50" height="50" relative="1" as="geometry">
            <mxPoint x="850" y="480" as="sourcePoint" />
            <mxPoint x="900" y="430" as="targetPoint" />
          </mxGeometry>
        </mxCell>
        <mxCell id="iRxltRBxoJt_cw-Zhl7R-32" value="1" style="ellipse;whiteSpace=wrap;html=1;aspect=fixed;" parent="1" vertex="1">
          <mxGeometry x="95" y="410" width="30" height="30" as="geometry" />
        </mxCell>
        <mxCell id="iRxltRBxoJt_cw-Zhl7R-33" value="2" style="ellipse;whiteSpace=wrap;html=1;aspect=fixed;" parent="1" vertex="1">
          <mxGeometry x="235" y="410" width="30" height="30" as="geometry" />
        </mxCell>
        <mxCell id="iRxltRBxoJt_cw-Zhl7R-34" value="3" style="ellipse;whiteSpace=wrap;html=1;aspect=fixed;" parent="1" vertex="1">
          <mxGeometry x="375" y="410" width="30" height="30" as="geometry" />
        </mxCell>
        <mxCell id="iRxltRBxoJt_cw-Zhl7R-35" value="4" style="ellipse;whiteSpace=wrap;html=1;aspect=fixed;" parent="1" vertex="1">
          <mxGeometry x="515" y="410" width="30" height="30" as="geometry" />
        </mxCell>
        <mxCell id="iRxltRBxoJt_cw-Zhl7R-36" value="5" style="ellipse;whiteSpace=wrap;html=1;aspect=fixed;" parent="1" vertex="1">
          <mxGeometry x="655" y="410" width="30" height="30" as="geometry" />
        </mxCell>
        <mxCell id="iRxltRBxoJt_cw-Zhl7R-37" value="6" style="ellipse;whiteSpace=wrap;html=1;aspect=fixed;" parent="1" vertex="1">
          <mxGeometry x="795" y="410" width="30" height="30" as="geometry" />
        </mxCell>
        <mxCell id="iRxltRBxoJt_cw-Zhl7R-38" value="7" style="ellipse;whiteSpace=wrap;html=1;aspect=fixed;" parent="1" vertex="1">
          <mxGeometry x="1005" y="410" width="30" height="30" as="geometry" />
        </mxCell>
        <mxCell id="iRxltRBxoJt_cw-Zhl7R-46" value="1" style="ellipse;whiteSpace=wrap;html=1;aspect=fixed;" parent="1" vertex="1">
          <mxGeometry x="1360" y="-100" width="30" height="30" as="geometry" />
        </mxCell>
        <mxCell id="iRxltRBxoJt_cw-Zhl7R-47" value="Ввод и редактирование&lt;div&gt;данных о клубе&lt;/div&gt;" style="shape=display;whiteSpace=wrap;html=1;" parent="1" vertex="1">
          <mxGeometry x="1560" y="40" width="200" height="40" as="geometry" />
        </mxCell>
        <mxCell id="iRxltRBxoJt_cw-Zhl7R-48" value="Ввод и редактирование&lt;div&gt;данных об игроках&lt;/div&gt;" style="shape=display;whiteSpace=wrap;html=1;" parent="1" vertex="1">
          <mxGeometry x="1560" y="120" width="200" height="40" as="geometry" />
        </mxCell>
        <mxCell id="iRxltRBxoJt_cw-Zhl7R-49" value="Ввод и редактирование&lt;div&gt;данных о тренерах&lt;/div&gt;" style="shape=display;whiteSpace=wrap;html=1;" parent="1" vertex="1">
          <mxGeometry x="1560" y="250" width="200" height="40" as="geometry" />
        </mxCell>
        <mxCell id="iRxltRBxoJt_cw-Zhl7R-50" value="Ввод и редактирование&lt;div&gt;данных о матчах&lt;/div&gt;" style="shape=display;whiteSpace=wrap;html=1;" parent="1" vertex="1">
          <mxGeometry x="1560" y="390" width="200" height="40" as="geometry" />
        </mxCell>
        <mxCell id="iRxltRBxoJt_cw-Zhl7R-51" value="Ввод и редактирование&lt;div&gt;данных о турнирах&lt;/div&gt;" style="shape=display;whiteSpace=wrap;html=1;" parent="1" vertex="1">
          <mxGeometry x="1560" y="640" width="200" height="40" as="geometry" />
        </mxCell>
        <mxCell id="iRxltRBxoJt_cw-Zhl7R-52" value="Ввод и редактирование&lt;div&gt;данных о стадионах&lt;/div&gt;" style="shape=display;whiteSpace=wrap;html=1;" parent="1" vertex="1">
          <mxGeometry x="1560" y="710" width="200" height="40" as="geometry" />
        </mxCell>
        <mxCell id="iRxltRBxoJt_cw-Zhl7R-53" value="Ввод и редактирование&lt;div&gt;данных о судьях&lt;/div&gt;" style="shape=display;whiteSpace=wrap;html=1;" parent="1" vertex="1">
          <mxGeometry x="1560" y="780" width="200" height="40" as="geometry" />
        </mxCell>
        <mxCell id="iRxltRBxoJt_cw-Zhl7R-55" value="таблица клуб" style="strokeWidth=2;html=1;shape=mxgraph.flowchart.database;whiteSpace=wrap;" parent="1" vertex="1">
          <mxGeometry x="1840" y="35" width="120" height="50" as="geometry" />
        </mxCell>
        <mxCell id="iRxltRBxoJt_cw-Zhl7R-56" value="" style="endArrow=classic;html=1;rounded=0;exitX=1;exitY=0.5;exitDx=0;exitDy=0;exitPerimeter=0;entryX=0;entryY=0.5;entryDx=0;entryDy=0;entryPerimeter=0;" parent="1" source="iRxltRBxoJt_cw-Zhl7R-47" target="iRxltRBxoJt_cw-Zhl7R-55" edge="1">
          <mxGeometry width="50" height="50" relative="1" as="geometry">
            <mxPoint x="1730" y="20" as="sourcePoint" />
            <mxPoint x="1780" y="-30" as="targetPoint" />
          </mxGeometry>
        </mxCell>
        <mxCell id="iRxltRBxoJt_cw-Zhl7R-58" value="таблица игрок" style="strokeWidth=2;html=1;shape=mxgraph.flowchart.database;whiteSpace=wrap;" parent="1" vertex="1">
          <mxGeometry x="1840" y="115" width="120" height="50" as="geometry" />
        </mxCell>
        <mxCell id="iRxltRBxoJt_cw-Zhl7R-59" value="таблица клуб" style="strokeWidth=2;html=1;shape=mxgraph.flowchart.database;whiteSpace=wrap;" parent="1" vertex="1">
          <mxGeometry x="1840" y="180" width="120" height="50" as="geometry" />
        </mxCell>
        <mxCell id="iRxltRBxoJt_cw-Zhl7R-60" value="" style="endArrow=classic;html=1;rounded=0;exitX=1;exitY=0.5;exitDx=0;exitDy=0;exitPerimeter=0;entryX=0;entryY=0.5;entryDx=0;entryDy=0;entryPerimeter=0;" parent="1" source="iRxltRBxoJt_cw-Zhl7R-48" target="iRxltRBxoJt_cw-Zhl7R-58" edge="1">
          <mxGeometry width="50" height="50" relative="1" as="geometry">
            <mxPoint x="1820" y="330" as="sourcePoint" />
            <mxPoint x="1870" y="280" as="targetPoint" />
          </mxGeometry>
        </mxCell>
        <mxCell id="iRxltRBxoJt_cw-Zhl7R-61" value="" style="endArrow=classic;html=1;rounded=0;exitX=1;exitY=0.5;exitDx=0;exitDy=0;exitPerimeter=0;entryX=0;entryY=0.5;entryDx=0;entryDy=0;entryPerimeter=0;" parent="1" source="iRxltRBxoJt_cw-Zhl7R-48" target="iRxltRBxoJt_cw-Zhl7R-59" edge="1">
          <mxGeometry width="50" height="50" relative="1" as="geometry">
            <mxPoint x="1840" y="350" as="sourcePoint" />
            <mxPoint x="1890" y="300" as="targetPoint" />
            <Array as="points">
              <mxPoint x="1800" y="140" />
              <mxPoint x="1800" y="205" />
            </Array>
          </mxGeometry>
        </mxCell>
        <mxCell id="iRxltRBxoJt_cw-Zhl7R-63" value="таблица тренер" style="strokeWidth=2;html=1;shape=mxgraph.flowchart.database;whiteSpace=wrap;" parent="1" vertex="1">
          <mxGeometry x="1840" y="245" width="120" height="50" as="geometry" />
        </mxCell>
        <mxCell id="iRxltRBxoJt_cw-Zhl7R-64" value="таблица клуб" style="strokeWidth=2;html=1;shape=mxgraph.flowchart.database;whiteSpace=wrap;" parent="1" vertex="1">
          <mxGeometry x="1840" y="310" width="120" height="50" as="geometry" />
        </mxCell>
        <mxCell id="iRxltRBxoJt_cw-Zhl7R-65" value="" style="endArrow=classic;html=1;rounded=0;exitX=1;exitY=0.5;exitDx=0;exitDy=0;exitPerimeter=0;entryX=0;entryY=0.5;entryDx=0;entryDy=0;entryPerimeter=0;" parent="1" source="iRxltRBxoJt_cw-Zhl7R-49" target="iRxltRBxoJt_cw-Zhl7R-63" edge="1">
          <mxGeometry width="50" height="50" relative="1" as="geometry">
            <mxPoint x="1850" y="470" as="sourcePoint" />
            <mxPoint x="1900" y="420" as="targetPoint" />
          </mxGeometry>
        </mxCell>
        <mxCell id="iRxltRBxoJt_cw-Zhl7R-66" value="" style="endArrow=classic;html=1;rounded=0;exitX=1;exitY=0.5;exitDx=0;exitDy=0;exitPerimeter=0;entryX=0;entryY=0.5;entryDx=0;entryDy=0;entryPerimeter=0;" parent="1" source="iRxltRBxoJt_cw-Zhl7R-49" target="iRxltRBxoJt_cw-Zhl7R-64" edge="1">
          <mxGeometry width="50" height="50" relative="1" as="geometry">
            <mxPoint x="1820" y="490" as="sourcePoint" />
            <mxPoint x="1870" y="440" as="targetPoint" />
            <Array as="points">
              <mxPoint x="1800" y="270" />
              <mxPoint x="1800" y="335" />
            </Array>
          </mxGeometry>
        </mxCell>
        <mxCell id="iRxltRBxoJt_cw-Zhl7R-68" value="таблица матч" style="strokeWidth=2;html=1;shape=mxgraph.flowchart.database;whiteSpace=wrap;" parent="1" vertex="1">
          <mxGeometry x="1840" y="385" width="120" height="50" as="geometry" />
        </mxCell>
        <mxCell id="iRxltRBxoJt_cw-Zhl7R-69" value="таблица стадион" style="strokeWidth=2;html=1;shape=mxgraph.flowchart.database;whiteSpace=wrap;" parent="1" vertex="1">
          <mxGeometry x="1840" y="445" width="120" height="50" as="geometry" />
        </mxCell>
        <mxCell id="iRxltRBxoJt_cw-Zhl7R-70" value="таблица судья" style="strokeWidth=2;html=1;shape=mxgraph.flowchart.database;whiteSpace=wrap;" parent="1" vertex="1">
          <mxGeometry x="1840" y="505" width="120" height="50" as="geometry" />
        </mxCell>
        <mxCell id="iRxltRBxoJt_cw-Zhl7R-71" value="таблица клуб" style="strokeWidth=2;html=1;shape=mxgraph.flowchart.database;whiteSpace=wrap;" parent="1" vertex="1">
          <mxGeometry x="1840" y="567" width="120" height="50" as="geometry" />
        </mxCell>
        <mxCell id="iRxltRBxoJt_cw-Zhl7R-72" style="edgeStyle=orthogonalEdgeStyle;rounded=0;orthogonalLoop=1;jettySize=auto;html=1;exitX=1;exitY=0.5;exitDx=0;exitDy=0;exitPerimeter=0;entryX=0;entryY=0.5;entryDx=0;entryDy=0;entryPerimeter=0;" parent="1" source="iRxltRBxoJt_cw-Zhl7R-50" target="iRxltRBxoJt_cw-Zhl7R-68" edge="1">
          <mxGeometry relative="1" as="geometry" />
        </mxCell>
        <mxCell id="iRxltRBxoJt_cw-Zhl7R-73" value="" style="endArrow=classic;html=1;rounded=0;exitX=1;exitY=0.5;exitDx=0;exitDy=0;exitPerimeter=0;entryX=0;entryY=0.5;entryDx=0;entryDy=0;entryPerimeter=0;" parent="1" source="iRxltRBxoJt_cw-Zhl7R-50" target="iRxltRBxoJt_cw-Zhl7R-70" edge="1">
          <mxGeometry width="50" height="50" relative="1" as="geometry">
            <mxPoint x="1420" y="520" as="sourcePoint" />
            <mxPoint x="1470" y="470" as="targetPoint" />
            <Array as="points">
              <mxPoint x="1800" y="410" />
              <mxPoint x="1800" y="530" />
            </Array>
          </mxGeometry>
        </mxCell>
        <mxCell id="iRxltRBxoJt_cw-Zhl7R-74" value="" style="endArrow=classic;html=1;rounded=0;exitX=1;exitY=0.5;exitDx=0;exitDy=0;exitPerimeter=0;entryX=0;entryY=0.5;entryDx=0;entryDy=0;entryPerimeter=0;" parent="1" source="iRxltRBxoJt_cw-Zhl7R-50" target="iRxltRBxoJt_cw-Zhl7R-69" edge="1">
          <mxGeometry width="50" height="50" relative="1" as="geometry">
            <mxPoint x="1370" y="500" as="sourcePoint" />
            <mxPoint x="1420" y="450" as="targetPoint" />
            <Array as="points">
              <mxPoint x="1800" y="410" />
              <mxPoint x="1800" y="470" />
            </Array>
          </mxGeometry>
        </mxCell>
        <mxCell id="iRxltRBxoJt_cw-Zhl7R-75" value="" style="endArrow=classic;html=1;rounded=0;exitX=1;exitY=0.5;exitDx=0;exitDy=0;exitPerimeter=0;entryX=0;entryY=0.5;entryDx=0;entryDy=0;entryPerimeter=0;" parent="1" source="iRxltRBxoJt_cw-Zhl7R-50" target="iRxltRBxoJt_cw-Zhl7R-71" edge="1">
          <mxGeometry width="50" height="50" relative="1" as="geometry">
            <mxPoint x="1340" y="450" as="sourcePoint" />
            <mxPoint x="1390" y="400" as="targetPoint" />
            <Array as="points">
              <mxPoint x="1800" y="410" />
              <mxPoint x="1800" y="592" />
            </Array>
          </mxGeometry>
        </mxCell>
        <mxCell id="iRxltRBxoJt_cw-Zhl7R-77" value="таблица турнир" style="strokeWidth=2;html=1;shape=mxgraph.flowchart.database;whiteSpace=wrap;" parent="1" vertex="1">
          <mxGeometry x="1840" y="635" width="120" height="50" as="geometry" />
        </mxCell>
        <mxCell id="iRxltRBxoJt_cw-Zhl7R-78" style="edgeStyle=orthogonalEdgeStyle;rounded=0;orthogonalLoop=1;jettySize=auto;html=1;exitX=1;exitY=0.5;exitDx=0;exitDy=0;exitPerimeter=0;entryX=0;entryY=0.5;entryDx=0;entryDy=0;entryPerimeter=0;" parent="1" source="iRxltRBxoJt_cw-Zhl7R-51" target="iRxltRBxoJt_cw-Zhl7R-77" edge="1">
          <mxGeometry relative="1" as="geometry" />
        </mxCell>
        <mxCell id="iRxltRBxoJt_cw-Zhl7R-80" value="таблица стадион" style="strokeWidth=2;html=1;shape=mxgraph.flowchart.database;whiteSpace=wrap;" parent="1" vertex="1">
          <mxGeometry x="1840" y="705" width="120" height="50" as="geometry" />
        </mxCell>
        <mxCell id="iRxltRBxoJt_cw-Zhl7R-81" style="edgeStyle=orthogonalEdgeStyle;rounded=0;orthogonalLoop=1;jettySize=auto;html=1;exitX=1;exitY=0.5;exitDx=0;exitDy=0;exitPerimeter=0;entryX=0;entryY=0.5;entryDx=0;entryDy=0;entryPerimeter=0;" parent="1" source="iRxltRBxoJt_cw-Zhl7R-52" target="iRxltRBxoJt_cw-Zhl7R-80" edge="1">
          <mxGeometry relative="1" as="geometry" />
        </mxCell>
        <mxCell id="iRxltRBxoJt_cw-Zhl7R-83" value="таблица судья" style="strokeWidth=2;html=1;shape=mxgraph.flowchart.database;whiteSpace=wrap;" parent="1" vertex="1">
          <mxGeometry x="1840" y="775" width="120" height="50" as="geometry" />
        </mxCell>
        <mxCell id="iRxltRBxoJt_cw-Zhl7R-84" style="edgeStyle=orthogonalEdgeStyle;rounded=0;orthogonalLoop=1;jettySize=auto;html=1;exitX=1;exitY=0.5;exitDx=0;exitDy=0;exitPerimeter=0;entryX=0;entryY=0.5;entryDx=0;entryDy=0;entryPerimeter=0;" parent="1" source="iRxltRBxoJt_cw-Zhl7R-53" target="iRxltRBxoJt_cw-Zhl7R-83" edge="1">
          <mxGeometry relative="1" as="geometry" />
        </mxCell>
        <mxCell id="iRxltRBxoJt_cw-Zhl7R-85" value="2" style="ellipse;whiteSpace=wrap;html=1;aspect=fixed;" parent="1" vertex="1">
          <mxGeometry x="2000" y="60" width="30" height="30" as="geometry" />
        </mxCell>
        <mxCell id="iRxltRBxoJt_cw-Zhl7R-86" value="Формирование отчёта&lt;div&gt;о составе клуба&lt;/div&gt;" style="shape=display;whiteSpace=wrap;html=1;" parent="1" vertex="1">
          <mxGeometry x="2060" y="135" width="200" height="40" as="geometry" />
        </mxCell>
        <mxCell id="iRxltRBxoJt_cw-Zhl7R-87" value="" style="endArrow=none;html=1;rounded=0;entryX=0.5;entryY=1;entryDx=0;entryDy=0;exitX=0;exitY=0.5;exitDx=0;exitDy=0;exitPerimeter=0;" parent="1" source="iRxltRBxoJt_cw-Zhl7R-86" target="iRxltRBxoJt_cw-Zhl7R-85" edge="1">
          <mxGeometry width="50" height="50" relative="1" as="geometry">
            <mxPoint x="1960" y="260" as="sourcePoint" />
            <mxPoint x="2010" y="210" as="targetPoint" />
            <Array as="points">
              <mxPoint x="2015" y="155" />
            </Array>
          </mxGeometry>
        </mxCell>
        <mxCell id="iRxltRBxoJt_cw-Zhl7R-88" value="Формирование отчёта&lt;div&gt;о тренерах&lt;/div&gt;" style="shape=display;whiteSpace=wrap;html=1;" parent="1" vertex="1">
          <mxGeometry x="2060" y="360" width="200" height="40" as="geometry" />
        </mxCell>
        <mxCell id="iRxltRBxoJt_cw-Zhl7R-89" value="Формирование отчёта&lt;div&gt;о судьях&lt;/div&gt;" style="shape=display;whiteSpace=wrap;html=1;" parent="1" vertex="1">
          <mxGeometry x="2060" y="560" width="200" height="40" as="geometry" />
        </mxCell>
        <mxCell id="iRxltRBxoJt_cw-Zhl7R-90" value="Формирование отчёта&lt;div&gt;о матчах&lt;/div&gt;" style="shape=display;whiteSpace=wrap;html=1;" parent="1" vertex="1">
          <mxGeometry x="2060" y="720" width="200" height="40" as="geometry" />
        </mxCell>
        <mxCell id="iRxltRBxoJt_cw-Zhl7R-91" value="Формирование&lt;div&gt;турнирной таблицы&lt;/div&gt;" style="shape=display;whiteSpace=wrap;html=1;" parent="1" vertex="1">
          <mxGeometry x="2070" y="910" width="200" height="40" as="geometry" />
        </mxCell>
        <mxCell id="iRxltRBxoJt_cw-Zhl7R-92" value="состав клуба" style="shape=document;whiteSpace=wrap;html=1;boundedLbl=1;" parent="1" vertex="1">
          <mxGeometry x="2320" y="60" width="120" height="45" as="geometry" />
        </mxCell>
        <mxCell id="iRxltRBxoJt_cw-Zhl7R-93" value="таблица игрок" style="strokeWidth=2;html=1;shape=mxgraph.flowchart.database;whiteSpace=wrap;" parent="1" vertex="1">
          <mxGeometry x="2320" y="130" width="120" height="50" as="geometry" />
        </mxCell>
        <mxCell id="iRxltRBxoJt_cw-Zhl7R-94" value="таблица клуб" style="strokeWidth=2;html=1;shape=mxgraph.flowchart.database;whiteSpace=wrap;" parent="1" vertex="1">
          <mxGeometry x="2320" y="200" width="120" height="50" as="geometry" />
        </mxCell>
        <mxCell id="iRxltRBxoJt_cw-Zhl7R-95" style="edgeStyle=orthogonalEdgeStyle;rounded=0;orthogonalLoop=1;jettySize=auto;html=1;exitX=1;exitY=0.5;exitDx=0;exitDy=0;exitPerimeter=0;entryX=0;entryY=0.5;entryDx=0;entryDy=0;entryPerimeter=0;" parent="1" source="iRxltRBxoJt_cw-Zhl7R-86" target="iRxltRBxoJt_cw-Zhl7R-93" edge="1">
          <mxGeometry relative="1" as="geometry" />
        </mxCell>
        <mxCell id="iRxltRBxoJt_cw-Zhl7R-96" value="" style="endArrow=classic;html=1;rounded=0;exitX=1;exitY=0.5;exitDx=0;exitDy=0;exitPerimeter=0;entryX=0;entryY=0.5;entryDx=0;entryDy=0;entryPerimeter=0;" parent="1" source="iRxltRBxoJt_cw-Zhl7R-86" target="iRxltRBxoJt_cw-Zhl7R-94" edge="1">
          <mxGeometry width="50" height="50" relative="1" as="geometry">
            <mxPoint x="2300" y="300" as="sourcePoint" />
            <mxPoint x="2350" y="250" as="targetPoint" />
            <Array as="points">
              <mxPoint x="2290" y="155" />
              <mxPoint x="2290" y="225" />
            </Array>
          </mxGeometry>
        </mxCell>
        <mxCell id="iRxltRBxoJt_cw-Zhl7R-97" value="" style="endArrow=classic;html=1;rounded=0;exitX=1;exitY=0.5;exitDx=0;exitDy=0;exitPerimeter=0;entryX=0;entryY=0.5;entryDx=0;entryDy=0;" parent="1" source="iRxltRBxoJt_cw-Zhl7R-86" target="iRxltRBxoJt_cw-Zhl7R-92" edge="1">
          <mxGeometry width="50" height="50" relative="1" as="geometry">
            <mxPoint x="2230" y="100" as="sourcePoint" />
            <mxPoint x="2280" y="50" as="targetPoint" />
            <Array as="points">
              <mxPoint x="2290" y="155" />
              <mxPoint x="2290" y="83" />
            </Array>
          </mxGeometry>
        </mxCell>
        <mxCell id="iRxltRBxoJt_cw-Zhl7R-98" value="" style="endArrow=none;html=1;rounded=0;entryX=0.5;entryY=1;entryDx=0;entryDy=0;exitX=0;exitY=0.5;exitDx=0;exitDy=0;exitPerimeter=0;" parent="1" source="iRxltRBxoJt_cw-Zhl7R-88" target="iRxltRBxoJt_cw-Zhl7R-85" edge="1">
          <mxGeometry width="50" height="50" relative="1" as="geometry">
            <mxPoint x="2020" y="290" as="sourcePoint" />
            <mxPoint x="2070" y="240" as="targetPoint" />
            <Array as="points">
              <mxPoint x="2015" y="380" />
            </Array>
          </mxGeometry>
        </mxCell>
        <mxCell id="iRxltRBxoJt_cw-Zhl7R-99" value="таблица тренер" style="strokeWidth=2;html=1;shape=mxgraph.flowchart.database;whiteSpace=wrap;" parent="1" vertex="1">
          <mxGeometry x="2320" y="355" width="120" height="50" as="geometry" />
        </mxCell>
        <mxCell id="iRxltRBxoJt_cw-Zhl7R-100" value="таблица клуб" style="strokeWidth=2;html=1;shape=mxgraph.flowchart.database;whiteSpace=wrap;" parent="1" vertex="1">
          <mxGeometry x="2320" y="422" width="120" height="50" as="geometry" />
        </mxCell>
        <mxCell id="iRxltRBxoJt_cw-Zhl7R-101" value="отчёт о тренерах" style="shape=document;whiteSpace=wrap;html=1;boundedLbl=1;" parent="1" vertex="1">
          <mxGeometry x="2320" y="295" width="120" height="45" as="geometry" />
        </mxCell>
        <mxCell id="iRxltRBxoJt_cw-Zhl7R-102" value="" style="endArrow=classic;html=1;rounded=0;exitX=1;exitY=0.5;exitDx=0;exitDy=0;exitPerimeter=0;entryX=0;entryY=0.5;entryDx=0;entryDy=0;" parent="1" source="iRxltRBxoJt_cw-Zhl7R-88" target="iRxltRBxoJt_cw-Zhl7R-101" edge="1">
          <mxGeometry width="50" height="50" relative="1" as="geometry">
            <mxPoint x="2090" y="310" as="sourcePoint" />
            <mxPoint x="2140" y="260" as="targetPoint" />
            <Array as="points">
              <mxPoint x="2290" y="380" />
              <mxPoint x="2290" y="317" />
            </Array>
          </mxGeometry>
        </mxCell>
        <mxCell id="iRxltRBxoJt_cw-Zhl7R-103" value="" style="endArrow=classic;html=1;rounded=0;exitX=1;exitY=0.5;exitDx=0;exitDy=0;exitPerimeter=0;entryX=0;entryY=0.5;entryDx=0;entryDy=0;entryPerimeter=0;" parent="1" source="iRxltRBxoJt_cw-Zhl7R-88" target="iRxltRBxoJt_cw-Zhl7R-100" edge="1">
          <mxGeometry width="50" height="50" relative="1" as="geometry">
            <mxPoint x="2060" y="280" as="sourcePoint" />
            <mxPoint x="2110" y="230" as="targetPoint" />
            <Array as="points">
              <mxPoint x="2290" y="380" />
              <mxPoint x="2290" y="447" />
            </Array>
          </mxGeometry>
        </mxCell>
        <mxCell id="iRxltRBxoJt_cw-Zhl7R-104" style="edgeStyle=orthogonalEdgeStyle;rounded=0;orthogonalLoop=1;jettySize=auto;html=1;exitX=1;exitY=0.5;exitDx=0;exitDy=0;exitPerimeter=0;entryX=0;entryY=0.5;entryDx=0;entryDy=0;entryPerimeter=0;" parent="1" source="iRxltRBxoJt_cw-Zhl7R-88" target="iRxltRBxoJt_cw-Zhl7R-99" edge="1">
          <mxGeometry relative="1" as="geometry" />
        </mxCell>
        <mxCell id="iRxltRBxoJt_cw-Zhl7R-105" value="" style="endArrow=none;html=1;rounded=0;exitX=0;exitY=0.5;exitDx=0;exitDy=0;exitPerimeter=0;entryX=0.5;entryY=1;entryDx=0;entryDy=0;" parent="1" source="iRxltRBxoJt_cw-Zhl7R-89" target="iRxltRBxoJt_cw-Zhl7R-85" edge="1">
          <mxGeometry width="50" height="50" relative="1" as="geometry">
            <mxPoint x="2020" y="530" as="sourcePoint" />
            <mxPoint x="2070" y="480" as="targetPoint" />
            <Array as="points">
              <mxPoint x="2015" y="580" />
            </Array>
          </mxGeometry>
        </mxCell>
        <mxCell id="iRxltRBxoJt_cw-Zhl7R-106" value="таблица судья" style="strokeWidth=2;html=1;shape=mxgraph.flowchart.database;whiteSpace=wrap;" parent="1" vertex="1">
          <mxGeometry x="2320" y="555" width="120" height="50" as="geometry" />
        </mxCell>
        <mxCell id="iRxltRBxoJt_cw-Zhl7R-107" value="отчёт о судьях" style="shape=document;whiteSpace=wrap;html=1;boundedLbl=1;" parent="1" vertex="1">
          <mxGeometry x="2320" y="495" width="120" height="45" as="geometry" />
        </mxCell>
        <mxCell id="iRxltRBxoJt_cw-Zhl7R-108" style="edgeStyle=orthogonalEdgeStyle;rounded=0;orthogonalLoop=1;jettySize=auto;html=1;exitX=1;exitY=0.5;exitDx=0;exitDy=0;exitPerimeter=0;entryX=0;entryY=0.5;entryDx=0;entryDy=0;entryPerimeter=0;" parent="1" source="iRxltRBxoJt_cw-Zhl7R-89" target="iRxltRBxoJt_cw-Zhl7R-106" edge="1">
          <mxGeometry relative="1" as="geometry" />
        </mxCell>
        <mxCell id="iRxltRBxoJt_cw-Zhl7R-109" value="" style="endArrow=classic;html=1;rounded=0;exitX=1;exitY=0.5;exitDx=0;exitDy=0;exitPerimeter=0;entryX=0;entryY=0.5;entryDx=0;entryDy=0;" parent="1" source="iRxltRBxoJt_cw-Zhl7R-89" target="iRxltRBxoJt_cw-Zhl7R-107" edge="1">
          <mxGeometry width="50" height="50" relative="1" as="geometry">
            <mxPoint x="2250" y="540" as="sourcePoint" />
            <mxPoint x="2300" y="490" as="targetPoint" />
            <Array as="points">
              <mxPoint x="2290" y="580" />
              <mxPoint x="2290" y="518" />
            </Array>
          </mxGeometry>
        </mxCell>
        <mxCell id="iRxltRBxoJt_cw-Zhl7R-110" value="таблица матч" style="strokeWidth=2;html=1;shape=mxgraph.flowchart.database;whiteSpace=wrap;" parent="1" vertex="1">
          <mxGeometry x="2320" y="715" width="120" height="50" as="geometry" />
        </mxCell>
        <mxCell id="iRxltRBxoJt_cw-Zhl7R-111" value="таблица клуб" style="strokeWidth=2;html=1;shape=mxgraph.flowchart.database;whiteSpace=wrap;" parent="1" vertex="1">
          <mxGeometry x="2320" y="780" width="120" height="50" as="geometry" />
        </mxCell>
        <mxCell id="iRxltRBxoJt_cw-Zhl7R-112" value="отчёт о судьях" style="shape=document;whiteSpace=wrap;html=1;boundedLbl=1;" parent="1" vertex="1">
          <mxGeometry x="2320" y="658" width="120" height="45" as="geometry" />
        </mxCell>
        <mxCell id="iRxltRBxoJt_cw-Zhl7R-113" style="edgeStyle=orthogonalEdgeStyle;rounded=0;orthogonalLoop=1;jettySize=auto;html=1;exitX=1;exitY=0.5;exitDx=0;exitDy=0;exitPerimeter=0;entryX=0;entryY=0.5;entryDx=0;entryDy=0;entryPerimeter=0;" parent="1" source="iRxltRBxoJt_cw-Zhl7R-90" target="iRxltRBxoJt_cw-Zhl7R-110" edge="1">
          <mxGeometry relative="1" as="geometry" />
        </mxCell>
        <mxCell id="iRxltRBxoJt_cw-Zhl7R-114" value="" style="endArrow=classic;html=1;rounded=0;exitX=1;exitY=0.5;exitDx=0;exitDy=0;exitPerimeter=0;entryX=0;entryY=0.5;entryDx=0;entryDy=0;entryPerimeter=0;" parent="1" source="iRxltRBxoJt_cw-Zhl7R-90" target="iRxltRBxoJt_cw-Zhl7R-111" edge="1">
          <mxGeometry width="50" height="50" relative="1" as="geometry">
            <mxPoint x="2050" y="680" as="sourcePoint" />
            <mxPoint x="2100" y="630" as="targetPoint" />
            <Array as="points">
              <mxPoint x="2290" y="740" />
              <mxPoint x="2290" y="805" />
            </Array>
          </mxGeometry>
        </mxCell>
        <mxCell id="iRxltRBxoJt_cw-Zhl7R-115" value="" style="endArrow=classic;html=1;rounded=0;exitX=1;exitY=0.5;exitDx=0;exitDy=0;exitPerimeter=0;entryX=0;entryY=0.5;entryDx=0;entryDy=0;" parent="1" source="iRxltRBxoJt_cw-Zhl7R-90" target="iRxltRBxoJt_cw-Zhl7R-112" edge="1">
          <mxGeometry width="50" height="50" relative="1" as="geometry">
            <mxPoint x="2150" y="690" as="sourcePoint" />
            <mxPoint x="2310" y="680" as="targetPoint" />
            <Array as="points">
              <mxPoint x="2290" y="740" />
              <mxPoint x="2290" y="680" />
            </Array>
          </mxGeometry>
        </mxCell>
        <mxCell id="iRxltRBxoJt_cw-Zhl7R-117" value="" style="endArrow=none;html=1;rounded=0;exitX=0;exitY=0.5;exitDx=0;exitDy=0;exitPerimeter=0;entryX=0.5;entryY=1;entryDx=0;entryDy=0;" parent="1" source="iRxltRBxoJt_cw-Zhl7R-90" target="iRxltRBxoJt_cw-Zhl7R-85" edge="1">
          <mxGeometry width="50" height="50" relative="1" as="geometry">
            <mxPoint x="2080" y="540" as="sourcePoint" />
            <mxPoint x="2130" y="490" as="targetPoint" />
            <Array as="points">
              <mxPoint x="2015" y="740" />
            </Array>
          </mxGeometry>
        </mxCell>
        <mxCell id="iRxltRBxoJt_cw-Zhl7R-118" value="таблица турнир" style="strokeWidth=2;html=1;shape=mxgraph.flowchart.database;whiteSpace=wrap;" parent="1" vertex="1">
          <mxGeometry x="2320" y="905" width="120" height="50" as="geometry" />
        </mxCell>
        <mxCell id="iRxltRBxoJt_cw-Zhl7R-119" value="таблица клуб" style="strokeWidth=2;html=1;shape=mxgraph.flowchart.database;whiteSpace=wrap;" parent="1" vertex="1">
          <mxGeometry x="2320" y="970" width="120" height="50" as="geometry" />
        </mxCell>
        <mxCell id="iRxltRBxoJt_cw-Zhl7R-120" value="&lt;div&gt;&lt;br&gt;&lt;/div&gt;таблица клуб_турнир" style="strokeWidth=2;html=1;shape=mxgraph.flowchart.database;whiteSpace=wrap;" parent="1" vertex="1">
          <mxGeometry x="2320" y="1036" width="120" height="50" as="geometry" />
        </mxCell>
        <mxCell id="iRxltRBxoJt_cw-Zhl7R-121" value="турнирная таблица" style="shape=document;whiteSpace=wrap;html=1;boundedLbl=1;" parent="1" vertex="1">
          <mxGeometry x="2320" y="850" width="120" height="45" as="geometry" />
        </mxCell>
        <mxCell id="iRxltRBxoJt_cw-Zhl7R-122" value="" style="endArrow=none;html=1;rounded=0;entryX=0;entryY=0.5;entryDx=0;entryDy=0;entryPerimeter=0;exitX=0.5;exitY=1;exitDx=0;exitDy=0;" parent="1" source="iRxltRBxoJt_cw-Zhl7R-85" target="iRxltRBxoJt_cw-Zhl7R-91" edge="1">
          <mxGeometry width="50" height="50" relative="1" as="geometry">
            <mxPoint x="1940" y="990" as="sourcePoint" />
            <mxPoint x="1990" y="940" as="targetPoint" />
            <Array as="points">
              <mxPoint x="2015" y="930" />
            </Array>
          </mxGeometry>
        </mxCell>
        <mxCell id="iRxltRBxoJt_cw-Zhl7R-123" style="edgeStyle=orthogonalEdgeStyle;rounded=0;orthogonalLoop=1;jettySize=auto;html=1;exitX=1;exitY=0.5;exitDx=0;exitDy=0;exitPerimeter=0;entryX=0;entryY=0.5;entryDx=0;entryDy=0;entryPerimeter=0;" parent="1" source="iRxltRBxoJt_cw-Zhl7R-91" target="iRxltRBxoJt_cw-Zhl7R-118" edge="1">
          <mxGeometry relative="1" as="geometry" />
        </mxCell>
        <mxCell id="iRxltRBxoJt_cw-Zhl7R-124" value="" style="endArrow=classic;html=1;rounded=0;exitX=1;exitY=0.5;exitDx=0;exitDy=0;exitPerimeter=0;entryX=0;entryY=0.5;entryDx=0;entryDy=0;" parent="1" source="iRxltRBxoJt_cw-Zhl7R-91" target="iRxltRBxoJt_cw-Zhl7R-121" edge="1">
          <mxGeometry width="50" height="50" relative="1" as="geometry">
            <mxPoint x="2210" y="880" as="sourcePoint" />
            <mxPoint x="2260" y="830" as="targetPoint" />
            <Array as="points">
              <mxPoint x="2290" y="930" />
              <mxPoint x="2290" y="873" />
            </Array>
          </mxGeometry>
        </mxCell>
        <mxCell id="iRxltRBxoJt_cw-Zhl7R-125" value="" style="endArrow=classic;html=1;rounded=0;exitX=1;exitY=0.5;exitDx=0;exitDy=0;exitPerimeter=0;entryX=0;entryY=0.5;entryDx=0;entryDy=0;entryPerimeter=0;" parent="1" source="iRxltRBxoJt_cw-Zhl7R-91" target="iRxltRBxoJt_cw-Zhl7R-119" edge="1">
          <mxGeometry width="50" height="50" relative="1" as="geometry">
            <mxPoint x="2220" y="1050" as="sourcePoint" />
            <mxPoint x="2270" y="1000" as="targetPoint" />
            <Array as="points">
              <mxPoint x="2290" y="930" />
              <mxPoint x="2290" y="995" />
            </Array>
          </mxGeometry>
        </mxCell>
        <mxCell id="iRxltRBxoJt_cw-Zhl7R-126" value="" style="endArrow=classic;html=1;rounded=0;exitX=1;exitY=0.5;exitDx=0;exitDy=0;exitPerimeter=0;entryX=0;entryY=0.5;entryDx=0;entryDy=0;entryPerimeter=0;" parent="1" source="iRxltRBxoJt_cw-Zhl7R-91" target="iRxltRBxoJt_cw-Zhl7R-120" edge="1">
          <mxGeometry width="50" height="50" relative="1" as="geometry">
            <mxPoint x="2060" y="1040" as="sourcePoint" />
            <mxPoint x="2110" y="990" as="targetPoint" />
            <Array as="points">
              <mxPoint x="2290" y="930" />
              <mxPoint x="2290" y="1061" />
            </Array>
          </mxGeometry>
        </mxCell>
        <mxCell id="iRxltRBxoJt_cw-Zhl7R-127" value="Ввод и редактирование&lt;div&gt;данных о клубе&lt;/div&gt;" style="shape=display;whiteSpace=wrap;html=1;" parent="1" vertex="1">
          <mxGeometry x="90" y="665" width="200" height="40" as="geometry" />
        </mxCell>
        <mxCell id="iRxltRBxoJt_cw-Zhl7R-128" value="Ввод и редактирование&lt;div&gt;данных об игроках&lt;/div&gt;" style="shape=display;whiteSpace=wrap;html=1;" parent="1" vertex="1">
          <mxGeometry x="90" y="745" width="200" height="40" as="geometry" />
        </mxCell>
        <mxCell id="iRxltRBxoJt_cw-Zhl7R-129" value="Ввод и редактирование&lt;div&gt;данных о тренерах&lt;/div&gt;" style="shape=display;whiteSpace=wrap;html=1;" parent="1" vertex="1">
          <mxGeometry x="90" y="875" width="200" height="40" as="geometry" />
        </mxCell>
        <mxCell id="iRxltRBxoJt_cw-Zhl7R-130" value="Ввод и редактирование&lt;div&gt;данных о матчах&lt;/div&gt;" style="shape=display;whiteSpace=wrap;html=1;" parent="1" vertex="1">
          <mxGeometry x="90" y="1015" width="200" height="40" as="geometry" />
        </mxCell>
        <mxCell id="iRxltRBxoJt_cw-Zhl7R-131" value="таблица клуб" style="strokeWidth=2;html=1;shape=mxgraph.flowchart.database;whiteSpace=wrap;" parent="1" vertex="1">
          <mxGeometry x="370" y="660" width="120" height="50" as="geometry" />
        </mxCell>
        <mxCell id="iRxltRBxoJt_cw-Zhl7R-132" value="" style="endArrow=classic;html=1;rounded=0;exitX=1;exitY=0.5;exitDx=0;exitDy=0;exitPerimeter=0;entryX=0;entryY=0.5;entryDx=0;entryDy=0;entryPerimeter=0;" parent="1" source="iRxltRBxoJt_cw-Zhl7R-127" target="iRxltRBxoJt_cw-Zhl7R-131" edge="1">
          <mxGeometry width="50" height="50" relative="1" as="geometry">
            <mxPoint x="260" y="645" as="sourcePoint" />
            <mxPoint x="310" y="595" as="targetPoint" />
          </mxGeometry>
        </mxCell>
        <mxCell id="iRxltRBxoJt_cw-Zhl7R-133" value="таблица игрок" style="strokeWidth=2;html=1;shape=mxgraph.flowchart.database;whiteSpace=wrap;" parent="1" vertex="1">
          <mxGeometry x="370" y="740" width="120" height="50" as="geometry" />
        </mxCell>
        <mxCell id="iRxltRBxoJt_cw-Zhl7R-134" value="таблица клуб" style="strokeWidth=2;html=1;shape=mxgraph.flowchart.database;whiteSpace=wrap;" parent="1" vertex="1">
          <mxGeometry x="370" y="805" width="120" height="50" as="geometry" />
        </mxCell>
        <mxCell id="iRxltRBxoJt_cw-Zhl7R-135" value="" style="endArrow=classic;html=1;rounded=0;exitX=1;exitY=0.5;exitDx=0;exitDy=0;exitPerimeter=0;entryX=0;entryY=0.5;entryDx=0;entryDy=0;entryPerimeter=0;" parent="1" source="iRxltRBxoJt_cw-Zhl7R-128" target="iRxltRBxoJt_cw-Zhl7R-133" edge="1">
          <mxGeometry width="50" height="50" relative="1" as="geometry">
            <mxPoint x="350" y="955" as="sourcePoint" />
            <mxPoint x="400" y="905" as="targetPoint" />
          </mxGeometry>
        </mxCell>
        <mxCell id="iRxltRBxoJt_cw-Zhl7R-136" value="" style="endArrow=classic;html=1;rounded=0;exitX=1;exitY=0.5;exitDx=0;exitDy=0;exitPerimeter=0;entryX=0;entryY=0.5;entryDx=0;entryDy=0;entryPerimeter=0;" parent="1" source="iRxltRBxoJt_cw-Zhl7R-128" target="iRxltRBxoJt_cw-Zhl7R-134" edge="1">
          <mxGeometry width="50" height="50" relative="1" as="geometry">
            <mxPoint x="370" y="975" as="sourcePoint" />
            <mxPoint x="420" y="925" as="targetPoint" />
            <Array as="points">
              <mxPoint x="330" y="765" />
              <mxPoint x="330" y="830" />
            </Array>
          </mxGeometry>
        </mxCell>
        <mxCell id="iRxltRBxoJt_cw-Zhl7R-137" value="таблица тренер" style="strokeWidth=2;html=1;shape=mxgraph.flowchart.database;whiteSpace=wrap;" parent="1" vertex="1">
          <mxGeometry x="370" y="870" width="120" height="50" as="geometry" />
        </mxCell>
        <mxCell id="iRxltRBxoJt_cw-Zhl7R-138" value="таблица клуб" style="strokeWidth=2;html=1;shape=mxgraph.flowchart.database;whiteSpace=wrap;" parent="1" vertex="1">
          <mxGeometry x="370" y="935" width="120" height="50" as="geometry" />
        </mxCell>
        <mxCell id="iRxltRBxoJt_cw-Zhl7R-139" value="" style="endArrow=classic;html=1;rounded=0;exitX=1;exitY=0.5;exitDx=0;exitDy=0;exitPerimeter=0;entryX=0;entryY=0.5;entryDx=0;entryDy=0;entryPerimeter=0;" parent="1" source="iRxltRBxoJt_cw-Zhl7R-129" target="iRxltRBxoJt_cw-Zhl7R-137" edge="1">
          <mxGeometry width="50" height="50" relative="1" as="geometry">
            <mxPoint x="380" y="1095" as="sourcePoint" />
            <mxPoint x="430" y="1045" as="targetPoint" />
          </mxGeometry>
        </mxCell>
        <mxCell id="iRxltRBxoJt_cw-Zhl7R-140" value="" style="endArrow=classic;html=1;rounded=0;exitX=1;exitY=0.5;exitDx=0;exitDy=0;exitPerimeter=0;entryX=0;entryY=0.5;entryDx=0;entryDy=0;entryPerimeter=0;" parent="1" source="iRxltRBxoJt_cw-Zhl7R-129" target="iRxltRBxoJt_cw-Zhl7R-138" edge="1">
          <mxGeometry width="50" height="50" relative="1" as="geometry">
            <mxPoint x="350" y="1115" as="sourcePoint" />
            <mxPoint x="400" y="1065" as="targetPoint" />
            <Array as="points">
              <mxPoint x="330" y="895" />
              <mxPoint x="330" y="960" />
            </Array>
          </mxGeometry>
        </mxCell>
        <mxCell id="iRxltRBxoJt_cw-Zhl7R-141" value="таблица матч" style="strokeWidth=2;html=1;shape=mxgraph.flowchart.database;whiteSpace=wrap;" parent="1" vertex="1">
          <mxGeometry x="370" y="1010" width="120" height="50" as="geometry" />
        </mxCell>
        <mxCell id="iRxltRBxoJt_cw-Zhl7R-142" value="таблица стадион" style="strokeWidth=2;html=1;shape=mxgraph.flowchart.database;whiteSpace=wrap;" parent="1" vertex="1">
          <mxGeometry x="370" y="1070" width="120" height="50" as="geometry" />
        </mxCell>
        <mxCell id="iRxltRBxoJt_cw-Zhl7R-143" value="таблица судья" style="strokeWidth=2;html=1;shape=mxgraph.flowchart.database;whiteSpace=wrap;" parent="1" vertex="1">
          <mxGeometry x="370" y="1130" width="120" height="50" as="geometry" />
        </mxCell>
        <mxCell id="iRxltRBxoJt_cw-Zhl7R-144" value="таблица клуб" style="strokeWidth=2;html=1;shape=mxgraph.flowchart.database;whiteSpace=wrap;" parent="1" vertex="1">
          <mxGeometry x="370" y="1192" width="120" height="50" as="geometry" />
        </mxCell>
        <mxCell id="iRxltRBxoJt_cw-Zhl7R-145" style="edgeStyle=orthogonalEdgeStyle;rounded=0;orthogonalLoop=1;jettySize=auto;html=1;exitX=1;exitY=0.5;exitDx=0;exitDy=0;exitPerimeter=0;entryX=0;entryY=0.5;entryDx=0;entryDy=0;entryPerimeter=0;" parent="1" source="iRxltRBxoJt_cw-Zhl7R-130" target="iRxltRBxoJt_cw-Zhl7R-141" edge="1">
          <mxGeometry relative="1" as="geometry" />
        </mxCell>
        <mxCell id="iRxltRBxoJt_cw-Zhl7R-146" value="" style="endArrow=classic;html=1;rounded=0;exitX=1;exitY=0.5;exitDx=0;exitDy=0;exitPerimeter=0;entryX=0;entryY=0.5;entryDx=0;entryDy=0;entryPerimeter=0;" parent="1" source="iRxltRBxoJt_cw-Zhl7R-130" target="iRxltRBxoJt_cw-Zhl7R-143" edge="1">
          <mxGeometry width="50" height="50" relative="1" as="geometry">
            <mxPoint x="-50" y="1145" as="sourcePoint" />
            <mxPoint y="1095" as="targetPoint" />
            <Array as="points">
              <mxPoint x="330" y="1035" />
              <mxPoint x="330" y="1155" />
            </Array>
          </mxGeometry>
        </mxCell>
        <mxCell id="iRxltRBxoJt_cw-Zhl7R-147" value="" style="endArrow=classic;html=1;rounded=0;exitX=1;exitY=0.5;exitDx=0;exitDy=0;exitPerimeter=0;entryX=0;entryY=0.5;entryDx=0;entryDy=0;entryPerimeter=0;" parent="1" source="iRxltRBxoJt_cw-Zhl7R-130" target="iRxltRBxoJt_cw-Zhl7R-142" edge="1">
          <mxGeometry width="50" height="50" relative="1" as="geometry">
            <mxPoint x="-100" y="1125" as="sourcePoint" />
            <mxPoint x="-50" y="1075" as="targetPoint" />
            <Array as="points">
              <mxPoint x="330" y="1035" />
              <mxPoint x="330" y="1095" />
            </Array>
          </mxGeometry>
        </mxCell>
        <mxCell id="iRxltRBxoJt_cw-Zhl7R-148" value="" style="endArrow=classic;html=1;rounded=0;exitX=1;exitY=0.5;exitDx=0;exitDy=0;exitPerimeter=0;entryX=0;entryY=0.5;entryDx=0;entryDy=0;entryPerimeter=0;" parent="1" source="iRxltRBxoJt_cw-Zhl7R-130" target="iRxltRBxoJt_cw-Zhl7R-144" edge="1">
          <mxGeometry width="50" height="50" relative="1" as="geometry">
            <mxPoint x="-130" y="1075" as="sourcePoint" />
            <mxPoint x="-80" y="1025" as="targetPoint" />
            <Array as="points">
              <mxPoint x="330" y="1035" />
              <mxPoint x="330" y="1217" />
            </Array>
          </mxGeometry>
        </mxCell>
        <mxCell id="iRxltRBxoJt_cw-Zhl7R-149" value="Ввод и редактирование&lt;div&gt;данных о стадионах&lt;/div&gt;" style="shape=display;whiteSpace=wrap;html=1;" parent="1" vertex="1">
          <mxGeometry x="90" y="1275" width="200" height="40" as="geometry" />
        </mxCell>
        <mxCell id="iRxltRBxoJt_cw-Zhl7R-150" value="таблица стадион" style="strokeWidth=2;html=1;shape=mxgraph.flowchart.database;whiteSpace=wrap;" parent="1" vertex="1">
          <mxGeometry x="370" y="1270" width="120" height="50" as="geometry" />
        </mxCell>
        <mxCell id="iRxltRBxoJt_cw-Zhl7R-151" style="edgeStyle=orthogonalEdgeStyle;rounded=0;orthogonalLoop=1;jettySize=auto;html=1;exitX=1;exitY=0.5;exitDx=0;exitDy=0;exitPerimeter=0;entryX=0;entryY=0.5;entryDx=0;entryDy=0;entryPerimeter=0;" parent="1" source="iRxltRBxoJt_cw-Zhl7R-149" target="iRxltRBxoJt_cw-Zhl7R-150" edge="1">
          <mxGeometry relative="1" as="geometry" />
        </mxCell>
        <mxCell id="iRxltRBxoJt_cw-Zhl7R-152" value="3" style="ellipse;whiteSpace=wrap;html=1;aspect=fixed;" parent="1" vertex="1">
          <mxGeometry x="-125" y="479.5" width="30" height="30" as="geometry" />
        </mxCell>
        <mxCell id="iRxltRBxoJt_cw-Zhl7R-160" value="4" style="ellipse;whiteSpace=wrap;html=1;aspect=fixed;" parent="1" vertex="1">
          <mxGeometry x="610" y="472" width="30" height="30" as="geometry" />
        </mxCell>
        <mxCell id="iRxltRBxoJt_cw-Zhl7R-161" value="Формирование отчёта&lt;div&gt;о составе клуба&lt;/div&gt;" style="shape=display;whiteSpace=wrap;html=1;" parent="1" vertex="1">
          <mxGeometry x="670" y="547" width="200" height="40" as="geometry" />
        </mxCell>
        <mxCell id="iRxltRBxoJt_cw-Zhl7R-162" value="" style="endArrow=none;html=1;rounded=0;entryX=0.5;entryY=1;entryDx=0;entryDy=0;exitX=0;exitY=0.5;exitDx=0;exitDy=0;exitPerimeter=0;" parent="1" source="iRxltRBxoJt_cw-Zhl7R-161" target="iRxltRBxoJt_cw-Zhl7R-160" edge="1">
          <mxGeometry width="50" height="50" relative="1" as="geometry">
            <mxPoint x="570" y="672" as="sourcePoint" />
            <mxPoint x="620" y="622" as="targetPoint" />
            <Array as="points">
              <mxPoint x="625" y="567" />
            </Array>
          </mxGeometry>
        </mxCell>
        <mxCell id="iRxltRBxoJt_cw-Zhl7R-163" value="Формирование отчёта&lt;div&gt;о тренерах&lt;/div&gt;" style="shape=display;whiteSpace=wrap;html=1;" parent="1" vertex="1">
          <mxGeometry x="670" y="772" width="200" height="40" as="geometry" />
        </mxCell>
        <mxCell id="iRxltRBxoJt_cw-Zhl7R-164" value="Формирование отчёта&lt;div&gt;о судьях&lt;/div&gt;" style="shape=display;whiteSpace=wrap;html=1;" parent="1" vertex="1">
          <mxGeometry x="670" y="972" width="200" height="40" as="geometry" />
        </mxCell>
        <mxCell id="iRxltRBxoJt_cw-Zhl7R-165" value="Формирование отчёта&lt;div&gt;о матчах&lt;/div&gt;" style="shape=display;whiteSpace=wrap;html=1;" parent="1" vertex="1">
          <mxGeometry x="670" y="1132" width="200" height="40" as="geometry" />
        </mxCell>
        <mxCell id="iRxltRBxoJt_cw-Zhl7R-166" value="Формирование&lt;div&gt;турнирной таблицы&lt;/div&gt;" style="shape=display;whiteSpace=wrap;html=1;" parent="1" vertex="1">
          <mxGeometry x="680" y="1322" width="200" height="40" as="geometry" />
        </mxCell>
        <mxCell id="iRxltRBxoJt_cw-Zhl7R-167" value="состав клуба" style="shape=document;whiteSpace=wrap;html=1;boundedLbl=1;" parent="1" vertex="1">
          <mxGeometry x="930" y="472" width="120" height="45" as="geometry" />
        </mxCell>
        <mxCell id="iRxltRBxoJt_cw-Zhl7R-168" value="таблица игрок" style="strokeWidth=2;html=1;shape=mxgraph.flowchart.database;whiteSpace=wrap;" parent="1" vertex="1">
          <mxGeometry x="930" y="542" width="120" height="50" as="geometry" />
        </mxCell>
        <mxCell id="iRxltRBxoJt_cw-Zhl7R-169" value="таблица клуб" style="strokeWidth=2;html=1;shape=mxgraph.flowchart.database;whiteSpace=wrap;" parent="1" vertex="1">
          <mxGeometry x="930" y="612" width="120" height="50" as="geometry" />
        </mxCell>
        <mxCell id="iRxltRBxoJt_cw-Zhl7R-170" style="edgeStyle=orthogonalEdgeStyle;rounded=0;orthogonalLoop=1;jettySize=auto;html=1;exitX=1;exitY=0.5;exitDx=0;exitDy=0;exitPerimeter=0;entryX=0;entryY=0.5;entryDx=0;entryDy=0;entryPerimeter=0;" parent="1" source="iRxltRBxoJt_cw-Zhl7R-161" target="iRxltRBxoJt_cw-Zhl7R-168" edge="1">
          <mxGeometry relative="1" as="geometry" />
        </mxCell>
        <mxCell id="iRxltRBxoJt_cw-Zhl7R-171" value="" style="endArrow=classic;html=1;rounded=0;exitX=1;exitY=0.5;exitDx=0;exitDy=0;exitPerimeter=0;entryX=0;entryY=0.5;entryDx=0;entryDy=0;entryPerimeter=0;" parent="1" source="iRxltRBxoJt_cw-Zhl7R-161" target="iRxltRBxoJt_cw-Zhl7R-169" edge="1">
          <mxGeometry width="50" height="50" relative="1" as="geometry">
            <mxPoint x="910" y="712" as="sourcePoint" />
            <mxPoint x="960" y="662" as="targetPoint" />
            <Array as="points">
              <mxPoint x="900" y="567" />
              <mxPoint x="900" y="637" />
            </Array>
          </mxGeometry>
        </mxCell>
        <mxCell id="iRxltRBxoJt_cw-Zhl7R-172" value="" style="endArrow=classic;html=1;rounded=0;exitX=1;exitY=0.5;exitDx=0;exitDy=0;exitPerimeter=0;entryX=0;entryY=0.5;entryDx=0;entryDy=0;" parent="1" source="iRxltRBxoJt_cw-Zhl7R-161" target="iRxltRBxoJt_cw-Zhl7R-167" edge="1">
          <mxGeometry width="50" height="50" relative="1" as="geometry">
            <mxPoint x="840" y="512" as="sourcePoint" />
            <mxPoint x="890" y="462" as="targetPoint" />
            <Array as="points">
              <mxPoint x="900" y="567" />
              <mxPoint x="900" y="495" />
            </Array>
          </mxGeometry>
        </mxCell>
        <mxCell id="iRxltRBxoJt_cw-Zhl7R-173" value="" style="endArrow=none;html=1;rounded=0;entryX=0.5;entryY=1;entryDx=0;entryDy=0;exitX=0;exitY=0.5;exitDx=0;exitDy=0;exitPerimeter=0;" parent="1" source="iRxltRBxoJt_cw-Zhl7R-163" target="iRxltRBxoJt_cw-Zhl7R-160" edge="1">
          <mxGeometry width="50" height="50" relative="1" as="geometry">
            <mxPoint x="630" y="702" as="sourcePoint" />
            <mxPoint x="680" y="652" as="targetPoint" />
            <Array as="points">
              <mxPoint x="625" y="792" />
            </Array>
          </mxGeometry>
        </mxCell>
        <mxCell id="iRxltRBxoJt_cw-Zhl7R-174" value="таблица тренер" style="strokeWidth=2;html=1;shape=mxgraph.flowchart.database;whiteSpace=wrap;" parent="1" vertex="1">
          <mxGeometry x="930" y="767" width="120" height="50" as="geometry" />
        </mxCell>
        <mxCell id="iRxltRBxoJt_cw-Zhl7R-175" value="таблица клуб" style="strokeWidth=2;html=1;shape=mxgraph.flowchart.database;whiteSpace=wrap;" parent="1" vertex="1">
          <mxGeometry x="930" y="834" width="120" height="50" as="geometry" />
        </mxCell>
        <mxCell id="iRxltRBxoJt_cw-Zhl7R-176" value="отчёт о тренерах" style="shape=document;whiteSpace=wrap;html=1;boundedLbl=1;" parent="1" vertex="1">
          <mxGeometry x="930" y="707" width="120" height="45" as="geometry" />
        </mxCell>
        <mxCell id="iRxltRBxoJt_cw-Zhl7R-177" value="" style="endArrow=classic;html=1;rounded=0;exitX=1;exitY=0.5;exitDx=0;exitDy=0;exitPerimeter=0;entryX=0;entryY=0.5;entryDx=0;entryDy=0;" parent="1" source="iRxltRBxoJt_cw-Zhl7R-163" target="iRxltRBxoJt_cw-Zhl7R-176" edge="1">
          <mxGeometry width="50" height="50" relative="1" as="geometry">
            <mxPoint x="700" y="722" as="sourcePoint" />
            <mxPoint x="750" y="672" as="targetPoint" />
            <Array as="points">
              <mxPoint x="900" y="792" />
              <mxPoint x="900" y="729" />
            </Array>
          </mxGeometry>
        </mxCell>
        <mxCell id="iRxltRBxoJt_cw-Zhl7R-178" value="" style="endArrow=classic;html=1;rounded=0;exitX=1;exitY=0.5;exitDx=0;exitDy=0;exitPerimeter=0;entryX=0;entryY=0.5;entryDx=0;entryDy=0;entryPerimeter=0;" parent="1" source="iRxltRBxoJt_cw-Zhl7R-163" target="iRxltRBxoJt_cw-Zhl7R-175" edge="1">
          <mxGeometry width="50" height="50" relative="1" as="geometry">
            <mxPoint x="670" y="692" as="sourcePoint" />
            <mxPoint x="720" y="642" as="targetPoint" />
            <Array as="points">
              <mxPoint x="900" y="792" />
              <mxPoint x="900" y="859" />
            </Array>
          </mxGeometry>
        </mxCell>
        <mxCell id="iRxltRBxoJt_cw-Zhl7R-179" style="edgeStyle=orthogonalEdgeStyle;rounded=0;orthogonalLoop=1;jettySize=auto;html=1;exitX=1;exitY=0.5;exitDx=0;exitDy=0;exitPerimeter=0;entryX=0;entryY=0.5;entryDx=0;entryDy=0;entryPerimeter=0;" parent="1" source="iRxltRBxoJt_cw-Zhl7R-163" target="iRxltRBxoJt_cw-Zhl7R-174" edge="1">
          <mxGeometry relative="1" as="geometry" />
        </mxCell>
        <mxCell id="iRxltRBxoJt_cw-Zhl7R-180" value="" style="endArrow=none;html=1;rounded=0;exitX=0;exitY=0.5;exitDx=0;exitDy=0;exitPerimeter=0;entryX=0.5;entryY=1;entryDx=0;entryDy=0;" parent="1" source="iRxltRBxoJt_cw-Zhl7R-164" target="iRxltRBxoJt_cw-Zhl7R-160" edge="1">
          <mxGeometry width="50" height="50" relative="1" as="geometry">
            <mxPoint x="630" y="942" as="sourcePoint" />
            <mxPoint x="680" y="892" as="targetPoint" />
            <Array as="points">
              <mxPoint x="625" y="992" />
            </Array>
          </mxGeometry>
        </mxCell>
        <mxCell id="iRxltRBxoJt_cw-Zhl7R-181" value="таблица судья" style="strokeWidth=2;html=1;shape=mxgraph.flowchart.database;whiteSpace=wrap;" parent="1" vertex="1">
          <mxGeometry x="930" y="967" width="120" height="50" as="geometry" />
        </mxCell>
        <mxCell id="iRxltRBxoJt_cw-Zhl7R-182" value="отчёт о судьях" style="shape=document;whiteSpace=wrap;html=1;boundedLbl=1;" parent="1" vertex="1">
          <mxGeometry x="930" y="907" width="120" height="45" as="geometry" />
        </mxCell>
        <mxCell id="iRxltRBxoJt_cw-Zhl7R-183" style="edgeStyle=orthogonalEdgeStyle;rounded=0;orthogonalLoop=1;jettySize=auto;html=1;exitX=1;exitY=0.5;exitDx=0;exitDy=0;exitPerimeter=0;entryX=0;entryY=0.5;entryDx=0;entryDy=0;entryPerimeter=0;" parent="1" source="iRxltRBxoJt_cw-Zhl7R-164" target="iRxltRBxoJt_cw-Zhl7R-181" edge="1">
          <mxGeometry relative="1" as="geometry" />
        </mxCell>
        <mxCell id="iRxltRBxoJt_cw-Zhl7R-184" value="" style="endArrow=classic;html=1;rounded=0;exitX=1;exitY=0.5;exitDx=0;exitDy=0;exitPerimeter=0;entryX=0;entryY=0.5;entryDx=0;entryDy=0;" parent="1" source="iRxltRBxoJt_cw-Zhl7R-164" target="iRxltRBxoJt_cw-Zhl7R-182" edge="1">
          <mxGeometry width="50" height="50" relative="1" as="geometry">
            <mxPoint x="860" y="952" as="sourcePoint" />
            <mxPoint x="910" y="902" as="targetPoint" />
            <Array as="points">
              <mxPoint x="900" y="992" />
              <mxPoint x="900" y="930" />
            </Array>
          </mxGeometry>
        </mxCell>
        <mxCell id="iRxltRBxoJt_cw-Zhl7R-185" value="таблица матч" style="strokeWidth=2;html=1;shape=mxgraph.flowchart.database;whiteSpace=wrap;" parent="1" vertex="1">
          <mxGeometry x="930" y="1127" width="120" height="50" as="geometry" />
        </mxCell>
        <mxCell id="iRxltRBxoJt_cw-Zhl7R-186" value="таблица клуб" style="strokeWidth=2;html=1;shape=mxgraph.flowchart.database;whiteSpace=wrap;" parent="1" vertex="1">
          <mxGeometry x="930" y="1192" width="120" height="50" as="geometry" />
        </mxCell>
        <mxCell id="iRxltRBxoJt_cw-Zhl7R-187" value="отчёт о судьях" style="shape=document;whiteSpace=wrap;html=1;boundedLbl=1;" parent="1" vertex="1">
          <mxGeometry x="930" y="1070" width="120" height="45" as="geometry" />
        </mxCell>
        <mxCell id="iRxltRBxoJt_cw-Zhl7R-188" style="edgeStyle=orthogonalEdgeStyle;rounded=0;orthogonalLoop=1;jettySize=auto;html=1;exitX=1;exitY=0.5;exitDx=0;exitDy=0;exitPerimeter=0;entryX=0;entryY=0.5;entryDx=0;entryDy=0;entryPerimeter=0;" parent="1" source="iRxltRBxoJt_cw-Zhl7R-165" target="iRxltRBxoJt_cw-Zhl7R-185" edge="1">
          <mxGeometry relative="1" as="geometry" />
        </mxCell>
        <mxCell id="iRxltRBxoJt_cw-Zhl7R-189" value="" style="endArrow=classic;html=1;rounded=0;exitX=1;exitY=0.5;exitDx=0;exitDy=0;exitPerimeter=0;entryX=0;entryY=0.5;entryDx=0;entryDy=0;entryPerimeter=0;" parent="1" source="iRxltRBxoJt_cw-Zhl7R-165" target="iRxltRBxoJt_cw-Zhl7R-186" edge="1">
          <mxGeometry width="50" height="50" relative="1" as="geometry">
            <mxPoint x="660" y="1092" as="sourcePoint" />
            <mxPoint x="710" y="1042" as="targetPoint" />
            <Array as="points">
              <mxPoint x="900" y="1152" />
              <mxPoint x="900" y="1217" />
            </Array>
          </mxGeometry>
        </mxCell>
        <mxCell id="iRxltRBxoJt_cw-Zhl7R-190" value="" style="endArrow=classic;html=1;rounded=0;exitX=1;exitY=0.5;exitDx=0;exitDy=0;exitPerimeter=0;entryX=0;entryY=0.5;entryDx=0;entryDy=0;" parent="1" source="iRxltRBxoJt_cw-Zhl7R-165" target="iRxltRBxoJt_cw-Zhl7R-187" edge="1">
          <mxGeometry width="50" height="50" relative="1" as="geometry">
            <mxPoint x="760" y="1102" as="sourcePoint" />
            <mxPoint x="920" y="1092" as="targetPoint" />
            <Array as="points">
              <mxPoint x="900" y="1152" />
              <mxPoint x="900" y="1092" />
            </Array>
          </mxGeometry>
        </mxCell>
        <mxCell id="iRxltRBxoJt_cw-Zhl7R-191" value="" style="endArrow=none;html=1;rounded=0;exitX=0;exitY=0.5;exitDx=0;exitDy=0;exitPerimeter=0;entryX=0.5;entryY=1;entryDx=0;entryDy=0;" parent="1" source="iRxltRBxoJt_cw-Zhl7R-165" target="iRxltRBxoJt_cw-Zhl7R-160" edge="1">
          <mxGeometry width="50" height="50" relative="1" as="geometry">
            <mxPoint x="690" y="952" as="sourcePoint" />
            <mxPoint x="740" y="902" as="targetPoint" />
            <Array as="points">
              <mxPoint x="625" y="1152" />
            </Array>
          </mxGeometry>
        </mxCell>
        <mxCell id="iRxltRBxoJt_cw-Zhl7R-192" value="таблица турнир" style="strokeWidth=2;html=1;shape=mxgraph.flowchart.database;whiteSpace=wrap;" parent="1" vertex="1">
          <mxGeometry x="930" y="1317" width="120" height="50" as="geometry" />
        </mxCell>
        <mxCell id="iRxltRBxoJt_cw-Zhl7R-193" value="таблица клуб" style="strokeWidth=2;html=1;shape=mxgraph.flowchart.database;whiteSpace=wrap;" parent="1" vertex="1">
          <mxGeometry x="930" y="1382" width="120" height="50" as="geometry" />
        </mxCell>
        <mxCell id="iRxltRBxoJt_cw-Zhl7R-194" value="&lt;div&gt;&lt;br&gt;&lt;/div&gt;таблица клуб_турнир" style="strokeWidth=2;html=1;shape=mxgraph.flowchart.database;whiteSpace=wrap;" parent="1" vertex="1">
          <mxGeometry x="930" y="1448" width="120" height="50" as="geometry" />
        </mxCell>
        <mxCell id="iRxltRBxoJt_cw-Zhl7R-195" value="турнирная таблица" style="shape=document;whiteSpace=wrap;html=1;boundedLbl=1;" parent="1" vertex="1">
          <mxGeometry x="930" y="1262" width="120" height="45" as="geometry" />
        </mxCell>
        <mxCell id="iRxltRBxoJt_cw-Zhl7R-196" value="" style="endArrow=none;html=1;rounded=0;entryX=0;entryY=0.5;entryDx=0;entryDy=0;entryPerimeter=0;exitX=0.5;exitY=1;exitDx=0;exitDy=0;" parent="1" source="iRxltRBxoJt_cw-Zhl7R-160" target="iRxltRBxoJt_cw-Zhl7R-166" edge="1">
          <mxGeometry width="50" height="50" relative="1" as="geometry">
            <mxPoint x="550" y="1402" as="sourcePoint" />
            <mxPoint x="600" y="1352" as="targetPoint" />
            <Array as="points">
              <mxPoint x="625" y="1342" />
            </Array>
          </mxGeometry>
        </mxCell>
        <mxCell id="iRxltRBxoJt_cw-Zhl7R-197" style="edgeStyle=orthogonalEdgeStyle;rounded=0;orthogonalLoop=1;jettySize=auto;html=1;exitX=1;exitY=0.5;exitDx=0;exitDy=0;exitPerimeter=0;entryX=0;entryY=0.5;entryDx=0;entryDy=0;entryPerimeter=0;" parent="1" source="iRxltRBxoJt_cw-Zhl7R-166" target="iRxltRBxoJt_cw-Zhl7R-192" edge="1">
          <mxGeometry relative="1" as="geometry" />
        </mxCell>
        <mxCell id="iRxltRBxoJt_cw-Zhl7R-198" value="" style="endArrow=classic;html=1;rounded=0;exitX=1;exitY=0.5;exitDx=0;exitDy=0;exitPerimeter=0;entryX=0;entryY=0.5;entryDx=0;entryDy=0;" parent="1" source="iRxltRBxoJt_cw-Zhl7R-166" target="iRxltRBxoJt_cw-Zhl7R-195" edge="1">
          <mxGeometry width="50" height="50" relative="1" as="geometry">
            <mxPoint x="820" y="1292" as="sourcePoint" />
            <mxPoint x="870" y="1242" as="targetPoint" />
            <Array as="points">
              <mxPoint x="900" y="1342" />
              <mxPoint x="900" y="1285" />
            </Array>
          </mxGeometry>
        </mxCell>
        <mxCell id="iRxltRBxoJt_cw-Zhl7R-199" value="" style="endArrow=classic;html=1;rounded=0;exitX=1;exitY=0.5;exitDx=0;exitDy=0;exitPerimeter=0;entryX=0;entryY=0.5;entryDx=0;entryDy=0;entryPerimeter=0;" parent="1" source="iRxltRBxoJt_cw-Zhl7R-166" target="iRxltRBxoJt_cw-Zhl7R-193" edge="1">
          <mxGeometry width="50" height="50" relative="1" as="geometry">
            <mxPoint x="830" y="1462" as="sourcePoint" />
            <mxPoint x="880" y="1412" as="targetPoint" />
            <Array as="points">
              <mxPoint x="900" y="1342" />
              <mxPoint x="900" y="1407" />
            </Array>
          </mxGeometry>
        </mxCell>
        <mxCell id="iRxltRBxoJt_cw-Zhl7R-200" value="" style="endArrow=classic;html=1;rounded=0;exitX=1;exitY=0.5;exitDx=0;exitDy=0;exitPerimeter=0;entryX=0;entryY=0.5;entryDx=0;entryDy=0;entryPerimeter=0;" parent="1" source="iRxltRBxoJt_cw-Zhl7R-166" target="iRxltRBxoJt_cw-Zhl7R-194" edge="1">
          <mxGeometry width="50" height="50" relative="1" as="geometry">
            <mxPoint x="670" y="1452" as="sourcePoint" />
            <mxPoint x="720" y="1402" as="targetPoint" />
            <Array as="points">
              <mxPoint x="900" y="1342" />
              <mxPoint x="900" y="1473" />
            </Array>
          </mxGeometry>
        </mxCell>
        <mxCell id="iRxltRBxoJt_cw-Zhl7R-201" value="Формирование отчёта&lt;div&gt;о турнирах&lt;/div&gt;" style="shape=display;whiteSpace=wrap;html=1;" parent="1" vertex="1">
          <mxGeometry x="680" y="1600" width="200" height="40" as="geometry" />
        </mxCell>
        <mxCell id="iRxltRBxoJt_cw-Zhl7R-202" value="таблица турнир" style="strokeWidth=2;html=1;shape=mxgraph.flowchart.database;whiteSpace=wrap;" parent="1" vertex="1">
          <mxGeometry x="930" y="1595" width="120" height="50" as="geometry" />
        </mxCell>
        <mxCell id="iRxltRBxoJt_cw-Zhl7R-203" value="отчёт о турнирах" style="shape=document;whiteSpace=wrap;html=1;boundedLbl=1;" parent="1" vertex="1">
          <mxGeometry x="930" y="1538" width="120" height="45" as="geometry" />
        </mxCell>
        <mxCell id="iRxltRBxoJt_cw-Zhl7R-204" style="edgeStyle=orthogonalEdgeStyle;rounded=0;orthogonalLoop=1;jettySize=auto;html=1;exitX=1;exitY=0.5;exitDx=0;exitDy=0;exitPerimeter=0;entryX=0;entryY=0.5;entryDx=0;entryDy=0;entryPerimeter=0;" parent="1" source="iRxltRBxoJt_cw-Zhl7R-201" target="iRxltRBxoJt_cw-Zhl7R-202" edge="1">
          <mxGeometry relative="1" as="geometry" />
        </mxCell>
        <mxCell id="iRxltRBxoJt_cw-Zhl7R-206" value="" style="endArrow=classic;html=1;rounded=0;exitX=1;exitY=0.5;exitDx=0;exitDy=0;exitPerimeter=0;entryX=0;entryY=0.5;entryDx=0;entryDy=0;" parent="1" source="iRxltRBxoJt_cw-Zhl7R-201" target="iRxltRBxoJt_cw-Zhl7R-203" edge="1">
          <mxGeometry width="50" height="50" relative="1" as="geometry">
            <mxPoint x="860" y="1590" as="sourcePoint" />
            <mxPoint x="910" y="1540" as="targetPoint" />
            <Array as="points">
              <mxPoint x="900" y="1620" />
              <mxPoint x="900" y="1560" />
            </Array>
          </mxGeometry>
        </mxCell>
        <mxCell id="iRxltRBxoJt_cw-Zhl7R-207" value="" style="endArrow=none;html=1;rounded=0;exitX=0;exitY=0.5;exitDx=0;exitDy=0;exitPerimeter=0;entryX=0.5;entryY=1;entryDx=0;entryDy=0;" parent="1" source="iRxltRBxoJt_cw-Zhl7R-201" target="iRxltRBxoJt_cw-Zhl7R-160" edge="1">
          <mxGeometry width="50" height="50" relative="1" as="geometry">
            <mxPoint x="570" y="1580" as="sourcePoint" />
            <mxPoint x="620" y="1530" as="targetPoint" />
            <Array as="points">
              <mxPoint x="625" y="1620" />
            </Array>
          </mxGeometry>
        </mxCell>
        <mxCell id="iRxltRBxoJt_cw-Zhl7R-208" value="Ввод и редактирование&lt;div&gt;данных об игроках&lt;/div&gt;" style="shape=display;whiteSpace=wrap;html=1;" parent="1" vertex="1">
          <mxGeometry x="1520" y="990" width="200" height="40" as="geometry" />
        </mxCell>
        <mxCell id="iRxltRBxoJt_cw-Zhl7R-209" value="таблица игрок" style="strokeWidth=2;html=1;shape=mxgraph.flowchart.database;whiteSpace=wrap;" parent="1" vertex="1">
          <mxGeometry x="1800" y="985" width="120" height="50" as="geometry" />
        </mxCell>
        <mxCell id="iRxltRBxoJt_cw-Zhl7R-210" value="таблица клуб" style="strokeWidth=2;html=1;shape=mxgraph.flowchart.database;whiteSpace=wrap;" parent="1" vertex="1">
          <mxGeometry x="1800" y="1050" width="120" height="50" as="geometry" />
        </mxCell>
        <mxCell id="iRxltRBxoJt_cw-Zhl7R-211" value="" style="endArrow=classic;html=1;rounded=0;exitX=1;exitY=0.5;exitDx=0;exitDy=0;exitPerimeter=0;entryX=0;entryY=0.5;entryDx=0;entryDy=0;entryPerimeter=0;" parent="1" source="iRxltRBxoJt_cw-Zhl7R-208" target="iRxltRBxoJt_cw-Zhl7R-209" edge="1">
          <mxGeometry width="50" height="50" relative="1" as="geometry">
            <mxPoint x="1780" y="1200" as="sourcePoint" />
            <mxPoint x="1830" y="1150" as="targetPoint" />
          </mxGeometry>
        </mxCell>
        <mxCell id="iRxltRBxoJt_cw-Zhl7R-212" value="" style="endArrow=classic;html=1;rounded=0;exitX=1;exitY=0.5;exitDx=0;exitDy=0;exitPerimeter=0;entryX=0;entryY=0.5;entryDx=0;entryDy=0;entryPerimeter=0;" parent="1" source="iRxltRBxoJt_cw-Zhl7R-208" target="iRxltRBxoJt_cw-Zhl7R-210" edge="1">
          <mxGeometry width="50" height="50" relative="1" as="geometry">
            <mxPoint x="1800" y="1220" as="sourcePoint" />
            <mxPoint x="1850" y="1170" as="targetPoint" />
            <Array as="points">
              <mxPoint x="1760" y="1010" />
              <mxPoint x="1760" y="1075" />
            </Array>
          </mxGeometry>
        </mxCell>
        <mxCell id="iRxltRBxoJt_cw-Zhl7R-213" value="Ввод и редактирование&lt;div&gt;данных о матчах&lt;/div&gt;" style="shape=display;whiteSpace=wrap;html=1;" parent="1" vertex="1">
          <mxGeometry x="1520" y="1130" width="200" height="40" as="geometry" />
        </mxCell>
        <mxCell id="iRxltRBxoJt_cw-Zhl7R-214" value="таблица матч" style="strokeWidth=2;html=1;shape=mxgraph.flowchart.database;whiteSpace=wrap;" parent="1" vertex="1">
          <mxGeometry x="1800" y="1125" width="120" height="50" as="geometry" />
        </mxCell>
        <mxCell id="iRxltRBxoJt_cw-Zhl7R-215" value="таблица стадион" style="strokeWidth=2;html=1;shape=mxgraph.flowchart.database;whiteSpace=wrap;" parent="1" vertex="1">
          <mxGeometry x="1800" y="1185" width="120" height="50" as="geometry" />
        </mxCell>
        <mxCell id="iRxltRBxoJt_cw-Zhl7R-216" value="таблица судья" style="strokeWidth=2;html=1;shape=mxgraph.flowchart.database;whiteSpace=wrap;" parent="1" vertex="1">
          <mxGeometry x="1800" y="1245" width="120" height="50" as="geometry" />
        </mxCell>
        <mxCell id="iRxltRBxoJt_cw-Zhl7R-217" value="таблица клуб" style="strokeWidth=2;html=1;shape=mxgraph.flowchart.database;whiteSpace=wrap;" parent="1" vertex="1">
          <mxGeometry x="1800" y="1307" width="120" height="50" as="geometry" />
        </mxCell>
        <mxCell id="iRxltRBxoJt_cw-Zhl7R-218" style="edgeStyle=orthogonalEdgeStyle;rounded=0;orthogonalLoop=1;jettySize=auto;html=1;exitX=1;exitY=0.5;exitDx=0;exitDy=0;exitPerimeter=0;entryX=0;entryY=0.5;entryDx=0;entryDy=0;entryPerimeter=0;" parent="1" source="iRxltRBxoJt_cw-Zhl7R-213" target="iRxltRBxoJt_cw-Zhl7R-214" edge="1">
          <mxGeometry relative="1" as="geometry" />
        </mxCell>
        <mxCell id="iRxltRBxoJt_cw-Zhl7R-219" value="" style="endArrow=classic;html=1;rounded=0;exitX=1;exitY=0.5;exitDx=0;exitDy=0;exitPerimeter=0;entryX=0;entryY=0.5;entryDx=0;entryDy=0;entryPerimeter=0;" parent="1" source="iRxltRBxoJt_cw-Zhl7R-213" target="iRxltRBxoJt_cw-Zhl7R-216" edge="1">
          <mxGeometry width="50" height="50" relative="1" as="geometry">
            <mxPoint x="1380" y="1260" as="sourcePoint" />
            <mxPoint x="1430" y="1210" as="targetPoint" />
            <Array as="points">
              <mxPoint x="1760" y="1150" />
              <mxPoint x="1760" y="1270" />
            </Array>
          </mxGeometry>
        </mxCell>
        <mxCell id="iRxltRBxoJt_cw-Zhl7R-220" value="" style="endArrow=classic;html=1;rounded=0;exitX=1;exitY=0.5;exitDx=0;exitDy=0;exitPerimeter=0;entryX=0;entryY=0.5;entryDx=0;entryDy=0;entryPerimeter=0;" parent="1" source="iRxltRBxoJt_cw-Zhl7R-213" target="iRxltRBxoJt_cw-Zhl7R-215" edge="1">
          <mxGeometry width="50" height="50" relative="1" as="geometry">
            <mxPoint x="1330" y="1240" as="sourcePoint" />
            <mxPoint x="1380" y="1190" as="targetPoint" />
            <Array as="points">
              <mxPoint x="1760" y="1150" />
              <mxPoint x="1760" y="1210" />
            </Array>
          </mxGeometry>
        </mxCell>
        <mxCell id="iRxltRBxoJt_cw-Zhl7R-221" value="" style="endArrow=classic;html=1;rounded=0;exitX=1;exitY=0.5;exitDx=0;exitDy=0;exitPerimeter=0;entryX=0;entryY=0.5;entryDx=0;entryDy=0;entryPerimeter=0;" parent="1" source="iRxltRBxoJt_cw-Zhl7R-213" target="iRxltRBxoJt_cw-Zhl7R-217" edge="1">
          <mxGeometry width="50" height="50" relative="1" as="geometry">
            <mxPoint x="1300" y="1190" as="sourcePoint" />
            <mxPoint x="1350" y="1140" as="targetPoint" />
            <Array as="points">
              <mxPoint x="1760" y="1150" />
              <mxPoint x="1760" y="1332" />
            </Array>
          </mxGeometry>
        </mxCell>
        <mxCell id="iRxltRBxoJt_cw-Zhl7R-222" value="5" style="ellipse;whiteSpace=wrap;html=1;aspect=fixed;" parent="1" vertex="1">
          <mxGeometry x="1310" y="877" width="30" height="30" as="geometry" />
        </mxCell>
        <mxCell id="iRxltRBxoJt_cw-Zhl7R-225" value="Формирование отчёта&lt;div&gt;о матчах&lt;/div&gt;" style="shape=display;whiteSpace=wrap;html=1;" parent="1" vertex="1">
          <mxGeometry x="2020" y="1429" width="200" height="40" as="geometry" />
        </mxCell>
        <mxCell id="iRxltRBxoJt_cw-Zhl7R-226" value="таблица матч" style="strokeWidth=2;html=1;shape=mxgraph.flowchart.database;whiteSpace=wrap;" parent="1" vertex="1">
          <mxGeometry x="2280" y="1424" width="120" height="50" as="geometry" />
        </mxCell>
        <mxCell id="iRxltRBxoJt_cw-Zhl7R-227" value="таблица клуб" style="strokeWidth=2;html=1;shape=mxgraph.flowchart.database;whiteSpace=wrap;" parent="1" vertex="1">
          <mxGeometry x="2280" y="1489" width="120" height="50" as="geometry" />
        </mxCell>
        <mxCell id="iRxltRBxoJt_cw-Zhl7R-228" value="отчёт о судьях" style="shape=document;whiteSpace=wrap;html=1;boundedLbl=1;" parent="1" vertex="1">
          <mxGeometry x="2280" y="1367" width="120" height="45" as="geometry" />
        </mxCell>
        <mxCell id="iRxltRBxoJt_cw-Zhl7R-229" style="edgeStyle=orthogonalEdgeStyle;rounded=0;orthogonalLoop=1;jettySize=auto;html=1;exitX=1;exitY=0.5;exitDx=0;exitDy=0;exitPerimeter=0;entryX=0;entryY=0.5;entryDx=0;entryDy=0;entryPerimeter=0;" parent="1" source="iRxltRBxoJt_cw-Zhl7R-225" target="iRxltRBxoJt_cw-Zhl7R-226" edge="1">
          <mxGeometry relative="1" as="geometry" />
        </mxCell>
        <mxCell id="iRxltRBxoJt_cw-Zhl7R-230" value="" style="endArrow=classic;html=1;rounded=0;exitX=1;exitY=0.5;exitDx=0;exitDy=0;exitPerimeter=0;entryX=0;entryY=0.5;entryDx=0;entryDy=0;entryPerimeter=0;" parent="1" source="iRxltRBxoJt_cw-Zhl7R-225" target="iRxltRBxoJt_cw-Zhl7R-227" edge="1">
          <mxGeometry width="50" height="50" relative="1" as="geometry">
            <mxPoint x="2010" y="1389" as="sourcePoint" />
            <mxPoint x="2060" y="1339" as="targetPoint" />
            <Array as="points">
              <mxPoint x="2250" y="1449" />
              <mxPoint x="2250" y="1514" />
            </Array>
          </mxGeometry>
        </mxCell>
        <mxCell id="iRxltRBxoJt_cw-Zhl7R-231" value="" style="endArrow=classic;html=1;rounded=0;exitX=1;exitY=0.5;exitDx=0;exitDy=0;exitPerimeter=0;entryX=0;entryY=0.5;entryDx=0;entryDy=0;" parent="1" source="iRxltRBxoJt_cw-Zhl7R-225" target="iRxltRBxoJt_cw-Zhl7R-228" edge="1">
          <mxGeometry width="50" height="50" relative="1" as="geometry">
            <mxPoint x="2110" y="1399" as="sourcePoint" />
            <mxPoint x="2270" y="1389" as="targetPoint" />
            <Array as="points">
              <mxPoint x="2250" y="1449" />
              <mxPoint x="2250" y="1389" />
            </Array>
          </mxGeometry>
        </mxCell>
        <mxCell id="iRxltRBxoJt_cw-Zhl7R-232" value="6" style="ellipse;whiteSpace=wrap;html=1;aspect=fixed;" parent="1" vertex="1">
          <mxGeometry x="1960" y="1127" width="30" height="30" as="geometry" />
        </mxCell>
        <mxCell id="iRxltRBxoJt_cw-Zhl7R-233" value="Формирование отчёта&lt;div&gt;о составе клуба&lt;/div&gt;" style="shape=display;whiteSpace=wrap;html=1;" parent="1" vertex="1">
          <mxGeometry x="2020" y="1202" width="200" height="40" as="geometry" />
        </mxCell>
        <mxCell id="iRxltRBxoJt_cw-Zhl7R-234" value="" style="endArrow=none;html=1;rounded=0;entryX=0.5;entryY=1;entryDx=0;entryDy=0;exitX=0;exitY=0.5;exitDx=0;exitDy=0;exitPerimeter=0;" parent="1" source="iRxltRBxoJt_cw-Zhl7R-233" target="iRxltRBxoJt_cw-Zhl7R-232" edge="1">
          <mxGeometry width="50" height="50" relative="1" as="geometry">
            <mxPoint x="1920" y="1327" as="sourcePoint" />
            <mxPoint x="1970" y="1277" as="targetPoint" />
            <Array as="points">
              <mxPoint x="1975" y="1222" />
            </Array>
          </mxGeometry>
        </mxCell>
        <mxCell id="iRxltRBxoJt_cw-Zhl7R-235" value="состав клуба" style="shape=document;whiteSpace=wrap;html=1;boundedLbl=1;" parent="1" vertex="1">
          <mxGeometry x="2280" y="1127" width="120" height="45" as="geometry" />
        </mxCell>
        <mxCell id="iRxltRBxoJt_cw-Zhl7R-236" value="таблица игрок" style="strokeWidth=2;html=1;shape=mxgraph.flowchart.database;whiteSpace=wrap;" parent="1" vertex="1">
          <mxGeometry x="2280" y="1197" width="120" height="50" as="geometry" />
        </mxCell>
        <mxCell id="iRxltRBxoJt_cw-Zhl7R-237" value="таблица клуб" style="strokeWidth=2;html=1;shape=mxgraph.flowchart.database;whiteSpace=wrap;" parent="1" vertex="1">
          <mxGeometry x="2280" y="1267" width="120" height="50" as="geometry" />
        </mxCell>
        <mxCell id="iRxltRBxoJt_cw-Zhl7R-238" style="edgeStyle=orthogonalEdgeStyle;rounded=0;orthogonalLoop=1;jettySize=auto;html=1;exitX=1;exitY=0.5;exitDx=0;exitDy=0;exitPerimeter=0;entryX=0;entryY=0.5;entryDx=0;entryDy=0;entryPerimeter=0;" parent="1" source="iRxltRBxoJt_cw-Zhl7R-233" target="iRxltRBxoJt_cw-Zhl7R-236" edge="1">
          <mxGeometry relative="1" as="geometry" />
        </mxCell>
        <mxCell id="iRxltRBxoJt_cw-Zhl7R-239" value="" style="endArrow=classic;html=1;rounded=0;exitX=1;exitY=0.5;exitDx=0;exitDy=0;exitPerimeter=0;entryX=0;entryY=0.5;entryDx=0;entryDy=0;entryPerimeter=0;" parent="1" source="iRxltRBxoJt_cw-Zhl7R-233" target="iRxltRBxoJt_cw-Zhl7R-237" edge="1">
          <mxGeometry width="50" height="50" relative="1" as="geometry">
            <mxPoint x="2260" y="1367" as="sourcePoint" />
            <mxPoint x="2310" y="1317" as="targetPoint" />
            <Array as="points">
              <mxPoint x="2250" y="1222" />
              <mxPoint x="2250" y="1292" />
            </Array>
          </mxGeometry>
        </mxCell>
        <mxCell id="iRxltRBxoJt_cw-Zhl7R-240" value="" style="endArrow=classic;html=1;rounded=0;exitX=1;exitY=0.5;exitDx=0;exitDy=0;exitPerimeter=0;entryX=0;entryY=0.5;entryDx=0;entryDy=0;" parent="1" source="iRxltRBxoJt_cw-Zhl7R-233" target="iRxltRBxoJt_cw-Zhl7R-235" edge="1">
          <mxGeometry width="50" height="50" relative="1" as="geometry">
            <mxPoint x="2190" y="1167" as="sourcePoint" />
            <mxPoint x="2240" y="1117" as="targetPoint" />
            <Array as="points">
              <mxPoint x="2250" y="1222" />
              <mxPoint x="2250" y="1150" />
            </Array>
          </mxGeometry>
        </mxCell>
        <mxCell id="iRxltRBxoJt_cw-Zhl7R-241" value="" style="endArrow=none;html=1;rounded=0;exitX=0;exitY=0.5;exitDx=0;exitDy=0;exitPerimeter=0;entryX=0.5;entryY=1;entryDx=0;entryDy=0;" parent="1" source="iRxltRBxoJt_cw-Zhl7R-225" target="iRxltRBxoJt_cw-Zhl7R-232" edge="1">
          <mxGeometry width="50" height="50" relative="1" as="geometry">
            <mxPoint x="1900" y="1440" as="sourcePoint" />
            <mxPoint x="1950" y="1390" as="targetPoint" />
            <Array as="points">
              <mxPoint x="1975" y="1449" />
            </Array>
          </mxGeometry>
        </mxCell>
        <mxCell id="iRxltRBxoJt_cw-Zhl7R-242" value="Формирование&lt;div&gt;турнирной таблицы&lt;/div&gt;" style="shape=display;whiteSpace=wrap;html=1;" parent="1" vertex="1">
          <mxGeometry x="2030" y="1630" width="200" height="40" as="geometry" />
        </mxCell>
        <mxCell id="iRxltRBxoJt_cw-Zhl7R-243" value="таблица турнир" style="strokeWidth=2;html=1;shape=mxgraph.flowchart.database;whiteSpace=wrap;" parent="1" vertex="1">
          <mxGeometry x="2280" y="1625" width="120" height="50" as="geometry" />
        </mxCell>
        <mxCell id="iRxltRBxoJt_cw-Zhl7R-244" value="таблица клуб" style="strokeWidth=2;html=1;shape=mxgraph.flowchart.database;whiteSpace=wrap;" parent="1" vertex="1">
          <mxGeometry x="2280" y="1690" width="120" height="50" as="geometry" />
        </mxCell>
        <mxCell id="iRxltRBxoJt_cw-Zhl7R-245" value="&lt;div&gt;&lt;br&gt;&lt;/div&gt;таблица клуб_турнир" style="strokeWidth=2;html=1;shape=mxgraph.flowchart.database;whiteSpace=wrap;" parent="1" vertex="1">
          <mxGeometry x="2280" y="1756" width="120" height="50" as="geometry" />
        </mxCell>
        <mxCell id="iRxltRBxoJt_cw-Zhl7R-246" value="турнирная таблица" style="shape=document;whiteSpace=wrap;html=1;boundedLbl=1;" parent="1" vertex="1">
          <mxGeometry x="2280" y="1570" width="120" height="45" as="geometry" />
        </mxCell>
        <mxCell id="iRxltRBxoJt_cw-Zhl7R-247" style="edgeStyle=orthogonalEdgeStyle;rounded=0;orthogonalLoop=1;jettySize=auto;html=1;exitX=1;exitY=0.5;exitDx=0;exitDy=0;exitPerimeter=0;entryX=0;entryY=0.5;entryDx=0;entryDy=0;entryPerimeter=0;" parent="1" source="iRxltRBxoJt_cw-Zhl7R-242" target="iRxltRBxoJt_cw-Zhl7R-243" edge="1">
          <mxGeometry relative="1" as="geometry" />
        </mxCell>
        <mxCell id="iRxltRBxoJt_cw-Zhl7R-248" value="" style="endArrow=classic;html=1;rounded=0;exitX=1;exitY=0.5;exitDx=0;exitDy=0;exitPerimeter=0;entryX=0;entryY=0.5;entryDx=0;entryDy=0;" parent="1" source="iRxltRBxoJt_cw-Zhl7R-242" target="iRxltRBxoJt_cw-Zhl7R-246" edge="1">
          <mxGeometry width="50" height="50" relative="1" as="geometry">
            <mxPoint x="2170" y="1600" as="sourcePoint" />
            <mxPoint x="2220" y="1550" as="targetPoint" />
            <Array as="points">
              <mxPoint x="2250" y="1650" />
              <mxPoint x="2250" y="1593" />
            </Array>
          </mxGeometry>
        </mxCell>
        <mxCell id="iRxltRBxoJt_cw-Zhl7R-249" value="" style="endArrow=classic;html=1;rounded=0;exitX=1;exitY=0.5;exitDx=0;exitDy=0;exitPerimeter=0;entryX=0;entryY=0.5;entryDx=0;entryDy=0;entryPerimeter=0;" parent="1" source="iRxltRBxoJt_cw-Zhl7R-242" target="iRxltRBxoJt_cw-Zhl7R-244" edge="1">
          <mxGeometry width="50" height="50" relative="1" as="geometry">
            <mxPoint x="2180" y="1770" as="sourcePoint" />
            <mxPoint x="2230" y="1720" as="targetPoint" />
            <Array as="points">
              <mxPoint x="2250" y="1650" />
              <mxPoint x="2250" y="1715" />
            </Array>
          </mxGeometry>
        </mxCell>
        <mxCell id="iRxltRBxoJt_cw-Zhl7R-250" value="" style="endArrow=classic;html=1;rounded=0;exitX=1;exitY=0.5;exitDx=0;exitDy=0;exitPerimeter=0;entryX=0;entryY=0.5;entryDx=0;entryDy=0;entryPerimeter=0;" parent="1" source="iRxltRBxoJt_cw-Zhl7R-242" target="iRxltRBxoJt_cw-Zhl7R-245" edge="1">
          <mxGeometry width="50" height="50" relative="1" as="geometry">
            <mxPoint x="2020" y="1760" as="sourcePoint" />
            <mxPoint x="2070" y="1710" as="targetPoint" />
            <Array as="points">
              <mxPoint x="2250" y="1650" />
              <mxPoint x="2250" y="1781" />
            </Array>
          </mxGeometry>
        </mxCell>
        <mxCell id="iRxltRBxoJt_cw-Zhl7R-251" value="" style="endArrow=none;html=1;rounded=0;exitX=0;exitY=0.5;exitDx=0;exitDy=0;exitPerimeter=0;entryX=0.5;entryY=1;entryDx=0;entryDy=0;" parent="1" source="iRxltRBxoJt_cw-Zhl7R-242" target="iRxltRBxoJt_cw-Zhl7R-232" edge="1">
          <mxGeometry width="50" height="50" relative="1" as="geometry">
            <mxPoint x="1870" y="1650" as="sourcePoint" />
            <mxPoint x="1920" y="1600" as="targetPoint" />
            <Array as="points">
              <mxPoint x="1975" y="1650" />
            </Array>
          </mxGeometry>
        </mxCell>
        <mxCell id="iRxltRBxoJt_cw-Zhl7R-252" value="Формирование отчёта&lt;div&gt;о турнирах&lt;/div&gt;" style="shape=display;whiteSpace=wrap;html=1;" parent="1" vertex="1">
          <mxGeometry x="2030" y="1892" width="200" height="40" as="geometry" />
        </mxCell>
        <mxCell id="iRxltRBxoJt_cw-Zhl7R-253" value="таблица турнир" style="strokeWidth=2;html=1;shape=mxgraph.flowchart.database;whiteSpace=wrap;" parent="1" vertex="1">
          <mxGeometry x="2280" y="1887" width="120" height="50" as="geometry" />
        </mxCell>
        <mxCell id="iRxltRBxoJt_cw-Zhl7R-254" value="отчёт о турнирах" style="shape=document;whiteSpace=wrap;html=1;boundedLbl=1;" parent="1" vertex="1">
          <mxGeometry x="2280" y="1830" width="120" height="45" as="geometry" />
        </mxCell>
        <mxCell id="iRxltRBxoJt_cw-Zhl7R-255" style="edgeStyle=orthogonalEdgeStyle;rounded=0;orthogonalLoop=1;jettySize=auto;html=1;exitX=1;exitY=0.5;exitDx=0;exitDy=0;exitPerimeter=0;entryX=0;entryY=0.5;entryDx=0;entryDy=0;entryPerimeter=0;" parent="1" source="iRxltRBxoJt_cw-Zhl7R-252" target="iRxltRBxoJt_cw-Zhl7R-253" edge="1">
          <mxGeometry relative="1" as="geometry" />
        </mxCell>
        <mxCell id="iRxltRBxoJt_cw-Zhl7R-256" value="" style="endArrow=classic;html=1;rounded=0;exitX=1;exitY=0.5;exitDx=0;exitDy=0;exitPerimeter=0;entryX=0;entryY=0.5;entryDx=0;entryDy=0;" parent="1" source="iRxltRBxoJt_cw-Zhl7R-252" target="iRxltRBxoJt_cw-Zhl7R-254" edge="1">
          <mxGeometry width="50" height="50" relative="1" as="geometry">
            <mxPoint x="2210" y="1882" as="sourcePoint" />
            <mxPoint x="2260" y="1832" as="targetPoint" />
            <Array as="points">
              <mxPoint x="2250" y="1912" />
              <mxPoint x="2250" y="1852" />
            </Array>
          </mxGeometry>
        </mxCell>
        <mxCell id="iRxltRBxoJt_cw-Zhl7R-257" value="Формирование отчёта&lt;div&gt;о клубах&lt;/div&gt;" style="shape=display;whiteSpace=wrap;html=1;" parent="1" vertex="1">
          <mxGeometry x="2030" y="2032" width="200" height="40" as="geometry" />
        </mxCell>
        <mxCell id="iRxltRBxoJt_cw-Zhl7R-258" value="таблица клуб" style="strokeWidth=2;html=1;shape=mxgraph.flowchart.database;whiteSpace=wrap;" parent="1" vertex="1">
          <mxGeometry x="2280" y="2027" width="120" height="50" as="geometry" />
        </mxCell>
        <mxCell id="iRxltRBxoJt_cw-Zhl7R-259" value="отчёт о клубах" style="shape=document;whiteSpace=wrap;html=1;boundedLbl=1;" parent="1" vertex="1">
          <mxGeometry x="2280" y="1970" width="120" height="45" as="geometry" />
        </mxCell>
        <mxCell id="iRxltRBxoJt_cw-Zhl7R-260" style="edgeStyle=orthogonalEdgeStyle;rounded=0;orthogonalLoop=1;jettySize=auto;html=1;exitX=1;exitY=0.5;exitDx=0;exitDy=0;exitPerimeter=0;entryX=0;entryY=0.5;entryDx=0;entryDy=0;entryPerimeter=0;" parent="1" source="iRxltRBxoJt_cw-Zhl7R-257" target="iRxltRBxoJt_cw-Zhl7R-258" edge="1">
          <mxGeometry relative="1" as="geometry" />
        </mxCell>
        <mxCell id="iRxltRBxoJt_cw-Zhl7R-261" value="" style="endArrow=classic;html=1;rounded=0;exitX=1;exitY=0.5;exitDx=0;exitDy=0;exitPerimeter=0;entryX=0;entryY=0.5;entryDx=0;entryDy=0;" parent="1" source="iRxltRBxoJt_cw-Zhl7R-257" target="iRxltRBxoJt_cw-Zhl7R-259" edge="1">
          <mxGeometry width="50" height="50" relative="1" as="geometry">
            <mxPoint x="2210" y="2022" as="sourcePoint" />
            <mxPoint x="2260" y="1972" as="targetPoint" />
            <Array as="points">
              <mxPoint x="2250" y="2052" />
              <mxPoint x="2250" y="1992" />
            </Array>
          </mxGeometry>
        </mxCell>
        <mxCell id="iRxltRBxoJt_cw-Zhl7R-262" value="" style="endArrow=none;html=1;rounded=0;exitX=0;exitY=0.5;exitDx=0;exitDy=0;exitPerimeter=0;entryX=0.5;entryY=1;entryDx=0;entryDy=0;" parent="1" source="iRxltRBxoJt_cw-Zhl7R-252" target="iRxltRBxoJt_cw-Zhl7R-232" edge="1">
          <mxGeometry width="50" height="50" relative="1" as="geometry">
            <mxPoint x="1490" y="1860" as="sourcePoint" />
            <mxPoint x="1870" y="1600" as="targetPoint" />
            <Array as="points">
              <mxPoint x="1975" y="1912" />
            </Array>
          </mxGeometry>
        </mxCell>
        <mxCell id="iRxltRBxoJt_cw-Zhl7R-263" value="" style="endArrow=none;html=1;rounded=0;entryX=0;entryY=0.5;entryDx=0;entryDy=0;entryPerimeter=0;exitX=0.5;exitY=1;exitDx=0;exitDy=0;" parent="1" source="iRxltRBxoJt_cw-Zhl7R-232" target="iRxltRBxoJt_cw-Zhl7R-257" edge="1">
          <mxGeometry width="50" height="50" relative="1" as="geometry">
            <mxPoint x="1640" y="1950" as="sourcePoint" />
            <mxPoint x="1690" y="1900" as="targetPoint" />
            <Array as="points">
              <mxPoint x="1975" y="2052" />
            </Array>
          </mxGeometry>
        </mxCell>
        <mxCell id="iRxltRBxoJt_cw-Zhl7R-264" value="Формирование отчёта&lt;div&gt;о матчах&lt;/div&gt;" style="shape=display;whiteSpace=wrap;html=1;" parent="1" vertex="1">
          <mxGeometry x="1480" y="1714" width="200" height="40" as="geometry" />
        </mxCell>
        <mxCell id="iRxltRBxoJt_cw-Zhl7R-265" value="таблица матч" style="strokeWidth=2;html=1;shape=mxgraph.flowchart.database;whiteSpace=wrap;" parent="1" vertex="1">
          <mxGeometry x="1740" y="1709" width="120" height="50" as="geometry" />
        </mxCell>
        <mxCell id="iRxltRBxoJt_cw-Zhl7R-266" value="таблица клуб" style="strokeWidth=2;html=1;shape=mxgraph.flowchart.database;whiteSpace=wrap;" parent="1" vertex="1">
          <mxGeometry x="1740" y="1774" width="120" height="50" as="geometry" />
        </mxCell>
        <mxCell id="iRxltRBxoJt_cw-Zhl7R-267" value="отчёт о судьях" style="shape=document;whiteSpace=wrap;html=1;boundedLbl=1;" parent="1" vertex="1">
          <mxGeometry x="1740" y="1652" width="120" height="45" as="geometry" />
        </mxCell>
        <mxCell id="iRxltRBxoJt_cw-Zhl7R-268" style="edgeStyle=orthogonalEdgeStyle;rounded=0;orthogonalLoop=1;jettySize=auto;html=1;exitX=1;exitY=0.5;exitDx=0;exitDy=0;exitPerimeter=0;entryX=0;entryY=0.5;entryDx=0;entryDy=0;entryPerimeter=0;" parent="1" source="iRxltRBxoJt_cw-Zhl7R-264" target="iRxltRBxoJt_cw-Zhl7R-265" edge="1">
          <mxGeometry relative="1" as="geometry" />
        </mxCell>
        <mxCell id="iRxltRBxoJt_cw-Zhl7R-269" value="" style="endArrow=classic;html=1;rounded=0;exitX=1;exitY=0.5;exitDx=0;exitDy=0;exitPerimeter=0;entryX=0;entryY=0.5;entryDx=0;entryDy=0;entryPerimeter=0;" parent="1" source="iRxltRBxoJt_cw-Zhl7R-264" target="iRxltRBxoJt_cw-Zhl7R-266" edge="1">
          <mxGeometry width="50" height="50" relative="1" as="geometry">
            <mxPoint x="1470" y="1674" as="sourcePoint" />
            <mxPoint x="1520" y="1624" as="targetPoint" />
            <Array as="points">
              <mxPoint x="1710" y="1734" />
              <mxPoint x="1710" y="1799" />
            </Array>
          </mxGeometry>
        </mxCell>
        <mxCell id="iRxltRBxoJt_cw-Zhl7R-270" value="" style="endArrow=classic;html=1;rounded=0;exitX=1;exitY=0.5;exitDx=0;exitDy=0;exitPerimeter=0;entryX=0;entryY=0.5;entryDx=0;entryDy=0;" parent="1" source="iRxltRBxoJt_cw-Zhl7R-264" target="iRxltRBxoJt_cw-Zhl7R-267" edge="1">
          <mxGeometry width="50" height="50" relative="1" as="geometry">
            <mxPoint x="1570" y="1684" as="sourcePoint" />
            <mxPoint x="1730" y="1674" as="targetPoint" />
            <Array as="points">
              <mxPoint x="1710" y="1734" />
              <mxPoint x="1710" y="1674" />
            </Array>
          </mxGeometry>
        </mxCell>
        <mxCell id="iRxltRBxoJt_cw-Zhl7R-271" value="7" style="ellipse;whiteSpace=wrap;html=1;aspect=fixed;" parent="1" vertex="1">
          <mxGeometry x="1420" y="1412" width="30" height="30" as="geometry" />
        </mxCell>
        <mxCell id="iRxltRBxoJt_cw-Zhl7R-272" value="Формирование отчёта&lt;div&gt;о составе клуба&lt;/div&gt;" style="shape=display;whiteSpace=wrap;html=1;" parent="1" vertex="1">
          <mxGeometry x="1480" y="1487" width="200" height="40" as="geometry" />
        </mxCell>
        <mxCell id="iRxltRBxoJt_cw-Zhl7R-273" value="" style="endArrow=none;html=1;rounded=0;entryX=0.5;entryY=1;entryDx=0;entryDy=0;exitX=0;exitY=0.5;exitDx=0;exitDy=0;exitPerimeter=0;" parent="1" source="iRxltRBxoJt_cw-Zhl7R-272" target="iRxltRBxoJt_cw-Zhl7R-271" edge="1">
          <mxGeometry width="50" height="50" relative="1" as="geometry">
            <mxPoint x="1380" y="1612" as="sourcePoint" />
            <mxPoint x="1430" y="1562" as="targetPoint" />
            <Array as="points">
              <mxPoint x="1435" y="1507" />
            </Array>
          </mxGeometry>
        </mxCell>
        <mxCell id="iRxltRBxoJt_cw-Zhl7R-274" value="состав клуба" style="shape=document;whiteSpace=wrap;html=1;boundedLbl=1;" parent="1" vertex="1">
          <mxGeometry x="1740" y="1412" width="120" height="45" as="geometry" />
        </mxCell>
        <mxCell id="iRxltRBxoJt_cw-Zhl7R-275" value="таблица игрок" style="strokeWidth=2;html=1;shape=mxgraph.flowchart.database;whiteSpace=wrap;" parent="1" vertex="1">
          <mxGeometry x="1740" y="1482" width="120" height="50" as="geometry" />
        </mxCell>
        <mxCell id="iRxltRBxoJt_cw-Zhl7R-276" value="таблица клуб" style="strokeWidth=2;html=1;shape=mxgraph.flowchart.database;whiteSpace=wrap;" parent="1" vertex="1">
          <mxGeometry x="1740" y="1552" width="120" height="50" as="geometry" />
        </mxCell>
        <mxCell id="iRxltRBxoJt_cw-Zhl7R-277" style="edgeStyle=orthogonalEdgeStyle;rounded=0;orthogonalLoop=1;jettySize=auto;html=1;exitX=1;exitY=0.5;exitDx=0;exitDy=0;exitPerimeter=0;entryX=0;entryY=0.5;entryDx=0;entryDy=0;entryPerimeter=0;" parent="1" source="iRxltRBxoJt_cw-Zhl7R-272" target="iRxltRBxoJt_cw-Zhl7R-275" edge="1">
          <mxGeometry relative="1" as="geometry" />
        </mxCell>
        <mxCell id="iRxltRBxoJt_cw-Zhl7R-278" value="" style="endArrow=classic;html=1;rounded=0;exitX=1;exitY=0.5;exitDx=0;exitDy=0;exitPerimeter=0;entryX=0;entryY=0.5;entryDx=0;entryDy=0;entryPerimeter=0;" parent="1" source="iRxltRBxoJt_cw-Zhl7R-272" target="iRxltRBxoJt_cw-Zhl7R-276" edge="1">
          <mxGeometry width="50" height="50" relative="1" as="geometry">
            <mxPoint x="1720" y="1652" as="sourcePoint" />
            <mxPoint x="1770" y="1602" as="targetPoint" />
            <Array as="points">
              <mxPoint x="1710" y="1507" />
              <mxPoint x="1710" y="1577" />
            </Array>
          </mxGeometry>
        </mxCell>
        <mxCell id="iRxltRBxoJt_cw-Zhl7R-279" value="" style="endArrow=classic;html=1;rounded=0;exitX=1;exitY=0.5;exitDx=0;exitDy=0;exitPerimeter=0;entryX=0;entryY=0.5;entryDx=0;entryDy=0;" parent="1" source="iRxltRBxoJt_cw-Zhl7R-272" target="iRxltRBxoJt_cw-Zhl7R-274" edge="1">
          <mxGeometry width="50" height="50" relative="1" as="geometry">
            <mxPoint x="1650" y="1452" as="sourcePoint" />
            <mxPoint x="1700" y="1402" as="targetPoint" />
            <Array as="points">
              <mxPoint x="1710" y="1507" />
              <mxPoint x="1710" y="1435" />
            </Array>
          </mxGeometry>
        </mxCell>
        <mxCell id="iRxltRBxoJt_cw-Zhl7R-280" value="" style="endArrow=none;html=1;rounded=0;exitX=0;exitY=0.5;exitDx=0;exitDy=0;exitPerimeter=0;entryX=0.5;entryY=1;entryDx=0;entryDy=0;" parent="1" source="iRxltRBxoJt_cw-Zhl7R-264" target="iRxltRBxoJt_cw-Zhl7R-271" edge="1">
          <mxGeometry width="50" height="50" relative="1" as="geometry">
            <mxPoint x="1360" y="1725" as="sourcePoint" />
            <mxPoint x="1410" y="1675" as="targetPoint" />
            <Array as="points">
              <mxPoint x="1435" y="1734" />
            </Array>
          </mxGeometry>
        </mxCell>
        <mxCell id="iRxltRBxoJt_cw-Zhl7R-281" value="Формирование&lt;div&gt;турнирной таблицы&lt;/div&gt;" style="shape=display;whiteSpace=wrap;html=1;" parent="1" vertex="1">
          <mxGeometry x="1490" y="1915" width="200" height="40" as="geometry" />
        </mxCell>
        <mxCell id="iRxltRBxoJt_cw-Zhl7R-282" value="таблица турнир" style="strokeWidth=2;html=1;shape=mxgraph.flowchart.database;whiteSpace=wrap;" parent="1" vertex="1">
          <mxGeometry x="1740" y="1910" width="120" height="50" as="geometry" />
        </mxCell>
        <mxCell id="iRxltRBxoJt_cw-Zhl7R-283" value="таблица клуб" style="strokeWidth=2;html=1;shape=mxgraph.flowchart.database;whiteSpace=wrap;" parent="1" vertex="1">
          <mxGeometry x="1740" y="1975" width="120" height="50" as="geometry" />
        </mxCell>
        <mxCell id="iRxltRBxoJt_cw-Zhl7R-284" value="&lt;div&gt;&lt;br&gt;&lt;/div&gt;таблица клуб_турнир" style="strokeWidth=2;html=1;shape=mxgraph.flowchart.database;whiteSpace=wrap;" parent="1" vertex="1">
          <mxGeometry x="1740" y="2041" width="120" height="50" as="geometry" />
        </mxCell>
        <mxCell id="iRxltRBxoJt_cw-Zhl7R-285" value="турнирная таблица" style="shape=document;whiteSpace=wrap;html=1;boundedLbl=1;" parent="1" vertex="1">
          <mxGeometry x="1740" y="1855" width="120" height="45" as="geometry" />
        </mxCell>
        <mxCell id="iRxltRBxoJt_cw-Zhl7R-286" style="edgeStyle=orthogonalEdgeStyle;rounded=0;orthogonalLoop=1;jettySize=auto;html=1;exitX=1;exitY=0.5;exitDx=0;exitDy=0;exitPerimeter=0;entryX=0;entryY=0.5;entryDx=0;entryDy=0;entryPerimeter=0;" parent="1" source="iRxltRBxoJt_cw-Zhl7R-281" target="iRxltRBxoJt_cw-Zhl7R-282" edge="1">
          <mxGeometry relative="1" as="geometry" />
        </mxCell>
        <mxCell id="iRxltRBxoJt_cw-Zhl7R-287" value="" style="endArrow=classic;html=1;rounded=0;exitX=1;exitY=0.5;exitDx=0;exitDy=0;exitPerimeter=0;entryX=0;entryY=0.5;entryDx=0;entryDy=0;" parent="1" source="iRxltRBxoJt_cw-Zhl7R-281" target="iRxltRBxoJt_cw-Zhl7R-285" edge="1">
          <mxGeometry width="50" height="50" relative="1" as="geometry">
            <mxPoint x="1630" y="1885" as="sourcePoint" />
            <mxPoint x="1680" y="1835" as="targetPoint" />
            <Array as="points">
              <mxPoint x="1710" y="1935" />
              <mxPoint x="1710" y="1878" />
            </Array>
          </mxGeometry>
        </mxCell>
        <mxCell id="iRxltRBxoJt_cw-Zhl7R-288" value="" style="endArrow=classic;html=1;rounded=0;exitX=1;exitY=0.5;exitDx=0;exitDy=0;exitPerimeter=0;entryX=0;entryY=0.5;entryDx=0;entryDy=0;entryPerimeter=0;" parent="1" source="iRxltRBxoJt_cw-Zhl7R-281" target="iRxltRBxoJt_cw-Zhl7R-283" edge="1">
          <mxGeometry width="50" height="50" relative="1" as="geometry">
            <mxPoint x="1640" y="2055" as="sourcePoint" />
            <mxPoint x="1690" y="2005" as="targetPoint" />
            <Array as="points">
              <mxPoint x="1710" y="1935" />
              <mxPoint x="1710" y="2000" />
            </Array>
          </mxGeometry>
        </mxCell>
        <mxCell id="iRxltRBxoJt_cw-Zhl7R-289" value="" style="endArrow=classic;html=1;rounded=0;exitX=1;exitY=0.5;exitDx=0;exitDy=0;exitPerimeter=0;entryX=0;entryY=0.5;entryDx=0;entryDy=0;entryPerimeter=0;" parent="1" source="iRxltRBxoJt_cw-Zhl7R-281" target="iRxltRBxoJt_cw-Zhl7R-284" edge="1">
          <mxGeometry width="50" height="50" relative="1" as="geometry">
            <mxPoint x="1480" y="2045" as="sourcePoint" />
            <mxPoint x="1530" y="1995" as="targetPoint" />
            <Array as="points">
              <mxPoint x="1710" y="1935" />
              <mxPoint x="1710" y="2066" />
            </Array>
          </mxGeometry>
        </mxCell>
        <mxCell id="iRxltRBxoJt_cw-Zhl7R-290" value="" style="endArrow=none;html=1;rounded=0;exitX=0;exitY=0.5;exitDx=0;exitDy=0;exitPerimeter=0;entryX=0.5;entryY=1;entryDx=0;entryDy=0;" parent="1" source="iRxltRBxoJt_cw-Zhl7R-281" target="iRxltRBxoJt_cw-Zhl7R-271" edge="1">
          <mxGeometry width="50" height="50" relative="1" as="geometry">
            <mxPoint x="1330" y="1935" as="sourcePoint" />
            <mxPoint x="1380" y="1885" as="targetPoint" />
            <Array as="points">
              <mxPoint x="1435" y="1935" />
            </Array>
          </mxGeometry>
        </mxCell>
        <mxCell id="iRxltRBxoJt_cw-Zhl7R-291" value="Формирование отчёта&lt;div&gt;о турнирах&lt;/div&gt;" style="shape=display;whiteSpace=wrap;html=1;" parent="1" vertex="1">
          <mxGeometry x="1490" y="2177" width="200" height="40" as="geometry" />
        </mxCell>
        <mxCell id="iRxltRBxoJt_cw-Zhl7R-292" value="таблица турнир" style="strokeWidth=2;html=1;shape=mxgraph.flowchart.database;whiteSpace=wrap;" parent="1" vertex="1">
          <mxGeometry x="1740" y="2172" width="120" height="50" as="geometry" />
        </mxCell>
        <mxCell id="iRxltRBxoJt_cw-Zhl7R-293" value="отчёт о турнирах" style="shape=document;whiteSpace=wrap;html=1;boundedLbl=1;" parent="1" vertex="1">
          <mxGeometry x="1740" y="2115" width="120" height="45" as="geometry" />
        </mxCell>
        <mxCell id="iRxltRBxoJt_cw-Zhl7R-294" style="edgeStyle=orthogonalEdgeStyle;rounded=0;orthogonalLoop=1;jettySize=auto;html=1;exitX=1;exitY=0.5;exitDx=0;exitDy=0;exitPerimeter=0;entryX=0;entryY=0.5;entryDx=0;entryDy=0;entryPerimeter=0;" parent="1" source="iRxltRBxoJt_cw-Zhl7R-291" target="iRxltRBxoJt_cw-Zhl7R-292" edge="1">
          <mxGeometry relative="1" as="geometry" />
        </mxCell>
        <mxCell id="iRxltRBxoJt_cw-Zhl7R-295" value="" style="endArrow=classic;html=1;rounded=0;exitX=1;exitY=0.5;exitDx=0;exitDy=0;exitPerimeter=0;entryX=0;entryY=0.5;entryDx=0;entryDy=0;" parent="1" source="iRxltRBxoJt_cw-Zhl7R-291" target="iRxltRBxoJt_cw-Zhl7R-293" edge="1">
          <mxGeometry width="50" height="50" relative="1" as="geometry">
            <mxPoint x="1670" y="2167" as="sourcePoint" />
            <mxPoint x="1720" y="2117" as="targetPoint" />
            <Array as="points">
              <mxPoint x="1710" y="2197" />
              <mxPoint x="1710" y="2137" />
            </Array>
          </mxGeometry>
        </mxCell>
        <mxCell id="iRxltRBxoJt_cw-Zhl7R-296" value="" style="endArrow=none;html=1;rounded=0;exitX=0;exitY=0.5;exitDx=0;exitDy=0;exitPerimeter=0;entryX=0.5;entryY=1;entryDx=0;entryDy=0;" parent="1" source="iRxltRBxoJt_cw-Zhl7R-291" target="iRxltRBxoJt_cw-Zhl7R-271" edge="1">
          <mxGeometry width="50" height="50" relative="1" as="geometry">
            <mxPoint x="950" y="2145" as="sourcePoint" />
            <mxPoint x="1330" y="1885" as="targetPoint" />
            <Array as="points">
              <mxPoint x="1435" y="2197" />
            </Array>
          </mxGeometry>
        </mxCell>
        <mxCell id="Ty3WXSSOC5wYY1u0p2fO-1" value="Клуб" style="rounded=0;whiteSpace=wrap;html=1;" vertex="1" parent="1">
          <mxGeometry x="-80" y="600" width="120" height="40" as="geometry" />
        </mxCell>
        <mxCell id="Ty3WXSSOC5wYY1u0p2fO-3" value="Персонал" style="rounded=0;whiteSpace=wrap;html=1;" vertex="1" parent="1">
          <mxGeometry x="-80" y="710" width="120" height="40" as="geometry" />
        </mxCell>
        <mxCell id="Ty3WXSSOC5wYY1u0p2fO-5" value="Матч" style="rounded=0;whiteSpace=wrap;html=1;" vertex="1" parent="1">
          <mxGeometry x="-80" y="963" width="120" height="40" as="geometry" />
        </mxCell>
        <mxCell id="Ty3WXSSOC5wYY1u0p2fO-6" value="Стадион" style="rounded=0;whiteSpace=wrap;html=1;" vertex="1" parent="1">
          <mxGeometry x="-80" y="1242" width="120" height="40" as="geometry" />
        </mxCell>
        <mxCell id="Ty3WXSSOC5wYY1u0p2fO-7" value="" style="endArrow=none;html=1;rounded=0;entryX=0.5;entryY=1;entryDx=0;entryDy=0;exitX=0;exitY=0.5;exitDx=0;exitDy=0;" edge="1" parent="1" source="Ty3WXSSOC5wYY1u0p2fO-1" target="iRxltRBxoJt_cw-Zhl7R-152">
          <mxGeometry width="50" height="50" relative="1" as="geometry">
            <mxPoint x="-320" y="630" as="sourcePoint" />
            <mxPoint x="-270" y="580" as="targetPoint" />
            <Array as="points">
              <mxPoint x="-110" y="620" />
            </Array>
          </mxGeometry>
        </mxCell>
        <mxCell id="Ty3WXSSOC5wYY1u0p2fO-8" value="" style="endArrow=none;html=1;rounded=0;entryX=0;entryY=0.5;entryDx=0;entryDy=0;entryPerimeter=0;exitX=0.5;exitY=1;exitDx=0;exitDy=0;" edge="1" parent="1" source="Ty3WXSSOC5wYY1u0p2fO-1" target="iRxltRBxoJt_cw-Zhl7R-127">
          <mxGeometry width="50" height="50" relative="1" as="geometry">
            <mxPoint x="-200" y="720" as="sourcePoint" />
            <mxPoint x="-150" y="670" as="targetPoint" />
            <Array as="points">
              <mxPoint x="-20" y="685" />
            </Array>
          </mxGeometry>
        </mxCell>
        <mxCell id="Ty3WXSSOC5wYY1u0p2fO-9" value="" style="endArrow=none;html=1;rounded=0;entryX=0;entryY=0.5;entryDx=0;entryDy=0;exitX=0.5;exitY=1;exitDx=0;exitDy=0;" edge="1" parent="1" source="iRxltRBxoJt_cw-Zhl7R-152" target="Ty3WXSSOC5wYY1u0p2fO-3">
          <mxGeometry width="50" height="50" relative="1" as="geometry">
            <mxPoint x="-120" y="520" as="sourcePoint" />
            <mxPoint x="-280" y="750" as="targetPoint" />
            <Array as="points">
              <mxPoint x="-110" y="730" />
            </Array>
          </mxGeometry>
        </mxCell>
        <mxCell id="Ty3WXSSOC5wYY1u0p2fO-10" value="" style="endArrow=none;html=1;rounded=0;entryX=0;entryY=0.5;entryDx=0;entryDy=0;entryPerimeter=0;exitX=0.5;exitY=1;exitDx=0;exitDy=0;" edge="1" parent="1" source="Ty3WXSSOC5wYY1u0p2fO-3" target="iRxltRBxoJt_cw-Zhl7R-128">
          <mxGeometry width="50" height="50" relative="1" as="geometry">
            <mxPoint x="-260" y="780" as="sourcePoint" />
            <mxPoint x="-210" y="730" as="targetPoint" />
            <Array as="points">
              <mxPoint x="-20" y="765" />
            </Array>
          </mxGeometry>
        </mxCell>
        <mxCell id="Ty3WXSSOC5wYY1u0p2fO-12" value="" style="endArrow=none;html=1;rounded=0;entryX=0.5;entryY=1;entryDx=0;entryDy=0;exitX=0;exitY=0.5;exitDx=0;exitDy=0;exitPerimeter=0;" edge="1" parent="1" source="iRxltRBxoJt_cw-Zhl7R-129" target="Ty3WXSSOC5wYY1u0p2fO-3">
          <mxGeometry width="50" height="50" relative="1" as="geometry">
            <mxPoint x="-170" y="910" as="sourcePoint" />
            <mxPoint x="-20" y="860" as="targetPoint" />
            <Array as="points">
              <mxPoint x="-20" y="895" />
            </Array>
          </mxGeometry>
        </mxCell>
        <mxCell id="Ty3WXSSOC5wYY1u0p2fO-13" value="" style="endArrow=none;html=1;rounded=0;entryX=0;entryY=0.5;entryDx=0;entryDy=0;exitX=0.5;exitY=1;exitDx=0;exitDy=0;" edge="1" parent="1" source="iRxltRBxoJt_cw-Zhl7R-152" target="Ty3WXSSOC5wYY1u0p2fO-5">
          <mxGeometry width="50" height="50" relative="1" as="geometry">
            <mxPoint x="-350" y="1040" as="sourcePoint" />
            <mxPoint x="-300" y="990" as="targetPoint" />
            <Array as="points">
              <mxPoint x="-110" y="983" />
            </Array>
          </mxGeometry>
        </mxCell>
        <mxCell id="Ty3WXSSOC5wYY1u0p2fO-15" value="" style="endArrow=none;html=1;rounded=0;entryX=0.5;entryY=1;entryDx=0;entryDy=0;exitX=0;exitY=0.5;exitDx=0;exitDy=0;exitPerimeter=0;" edge="1" parent="1" source="iRxltRBxoJt_cw-Zhl7R-130" target="Ty3WXSSOC5wYY1u0p2fO-5">
          <mxGeometry width="50" height="50" relative="1" as="geometry">
            <mxPoint x="-380" y="1030" as="sourcePoint" />
            <mxPoint x="-330" y="980" as="targetPoint" />
            <Array as="points">
              <mxPoint x="-20" y="1035" />
            </Array>
          </mxGeometry>
        </mxCell>
        <mxCell id="Ty3WXSSOC5wYY1u0p2fO-16" value="" style="endArrow=none;html=1;rounded=0;entryX=0;entryY=0.5;entryDx=0;entryDy=0;exitX=0.5;exitY=1;exitDx=0;exitDy=0;" edge="1" parent="1" source="iRxltRBxoJt_cw-Zhl7R-152" target="Ty3WXSSOC5wYY1u0p2fO-6">
          <mxGeometry width="50" height="50" relative="1" as="geometry">
            <mxPoint x="-150" y="740" as="sourcePoint" />
            <mxPoint x="-190" y="1260" as="targetPoint" />
            <Array as="points">
              <mxPoint x="-110" y="1262" />
            </Array>
          </mxGeometry>
        </mxCell>
        <mxCell id="Ty3WXSSOC5wYY1u0p2fO-17" value="" style="endArrow=none;html=1;rounded=0;entryX=0.5;entryY=1;entryDx=0;entryDy=0;exitX=0;exitY=0.5;exitDx=0;exitDy=0;exitPerimeter=0;" edge="1" parent="1" source="iRxltRBxoJt_cw-Zhl7R-149" target="Ty3WXSSOC5wYY1u0p2fO-6">
          <mxGeometry width="50" height="50" relative="1" as="geometry">
            <mxPoint x="-70" y="1360" as="sourcePoint" />
            <mxPoint x="-20" y="1310" as="targetPoint" />
            <Array as="points">
              <mxPoint x="-20" y="1295" />
            </Array>
          </mxGeometry>
        </mxCell>
        <mxCell id="Ty3WXSSOC5wYY1u0p2fO-18" value="Клуб" style="rounded=0;whiteSpace=wrap;html=1;" vertex="1" parent="1">
          <mxGeometry x="1400" y="-20" width="120" height="40" as="geometry" />
        </mxCell>
        <mxCell id="Ty3WXSSOC5wYY1u0p2fO-19" value="Персонал" style="rounded=0;whiteSpace=wrap;html=1;" vertex="1" parent="1">
          <mxGeometry x="1400" y="80" width="120" height="40" as="geometry" />
        </mxCell>
        <mxCell id="Ty3WXSSOC5wYY1u0p2fO-21" value="Матч" style="rounded=0;whiteSpace=wrap;html=1;" vertex="1" parent="1">
          <mxGeometry x="1400" y="350" width="120" height="40" as="geometry" />
        </mxCell>
        <mxCell id="Ty3WXSSOC5wYY1u0p2fO-22" value="Турнир" style="rounded=0;whiteSpace=wrap;html=1;" vertex="1" parent="1">
          <mxGeometry x="1400" y="587" width="120" height="40" as="geometry" />
        </mxCell>
        <mxCell id="Ty3WXSSOC5wYY1u0p2fO-23" value="" style="endArrow=none;html=1;rounded=0;entryX=0.5;entryY=1;entryDx=0;entryDy=0;exitX=0;exitY=0.5;exitDx=0;exitDy=0;" edge="1" parent="1" source="Ty3WXSSOC5wYY1u0p2fO-18" target="iRxltRBxoJt_cw-Zhl7R-46">
          <mxGeometry width="50" height="50" relative="1" as="geometry">
            <mxPoint x="1300" y="10" as="sourcePoint" />
            <mxPoint x="1350" y="-40" as="targetPoint" />
            <Array as="points">
              <mxPoint x="1375" />
            </Array>
          </mxGeometry>
        </mxCell>
        <mxCell id="Ty3WXSSOC5wYY1u0p2fO-24" value="" style="endArrow=none;html=1;rounded=0;entryX=0.5;entryY=1;entryDx=0;entryDy=0;exitX=0;exitY=0.5;exitDx=0;exitDy=0;exitPerimeter=0;" edge="1" parent="1" source="iRxltRBxoJt_cw-Zhl7R-47" target="Ty3WXSSOC5wYY1u0p2fO-18">
          <mxGeometry width="50" height="50" relative="1" as="geometry">
            <mxPoint x="1230" y="110" as="sourcePoint" />
            <mxPoint x="1280" y="60" as="targetPoint" />
            <Array as="points">
              <mxPoint x="1460" y="60" />
            </Array>
          </mxGeometry>
        </mxCell>
        <mxCell id="Ty3WXSSOC5wYY1u0p2fO-25" value="" style="endArrow=none;html=1;rounded=0;entryX=0;entryY=0.5;entryDx=0;entryDy=0;exitX=0.5;exitY=1;exitDx=0;exitDy=0;" edge="1" parent="1" source="iRxltRBxoJt_cw-Zhl7R-46" target="Ty3WXSSOC5wYY1u0p2fO-19">
          <mxGeometry width="50" height="50" relative="1" as="geometry">
            <mxPoint x="1250" y="150" as="sourcePoint" />
            <mxPoint x="1300" y="100" as="targetPoint" />
            <Array as="points">
              <mxPoint x="1375" y="100" />
            </Array>
          </mxGeometry>
        </mxCell>
        <mxCell id="Ty3WXSSOC5wYY1u0p2fO-26" value="" style="endArrow=none;html=1;rounded=0;entryX=0.5;entryY=1;entryDx=0;entryDy=0;exitX=0;exitY=0.5;exitDx=0;exitDy=0;exitPerimeter=0;" edge="1" parent="1" source="iRxltRBxoJt_cw-Zhl7R-48" target="Ty3WXSSOC5wYY1u0p2fO-19">
          <mxGeometry width="50" height="50" relative="1" as="geometry">
            <mxPoint x="1280" y="210" as="sourcePoint" />
            <mxPoint x="1330" y="160" as="targetPoint" />
            <Array as="points">
              <mxPoint x="1460" y="140" />
            </Array>
          </mxGeometry>
        </mxCell>
        <mxCell id="Ty3WXSSOC5wYY1u0p2fO-28" value="" style="endArrow=none;html=1;rounded=0;entryX=0.5;entryY=1;entryDx=0;entryDy=0;exitX=0;exitY=0.5;exitDx=0;exitDy=0;exitPerimeter=0;" edge="1" parent="1" source="iRxltRBxoJt_cw-Zhl7R-49" target="Ty3WXSSOC5wYY1u0p2fO-19">
          <mxGeometry width="50" height="50" relative="1" as="geometry">
            <mxPoint x="1240" y="290" as="sourcePoint" />
            <mxPoint x="1460" y="240" as="targetPoint" />
            <Array as="points">
              <mxPoint x="1460" y="270" />
            </Array>
          </mxGeometry>
        </mxCell>
        <mxCell id="Ty3WXSSOC5wYY1u0p2fO-29" value="" style="endArrow=none;html=1;rounded=0;entryX=0;entryY=0.5;entryDx=0;entryDy=0;exitX=0.5;exitY=1;exitDx=0;exitDy=0;" edge="1" parent="1" source="iRxltRBxoJt_cw-Zhl7R-46" target="Ty3WXSSOC5wYY1u0p2fO-21">
          <mxGeometry width="50" height="50" relative="1" as="geometry">
            <mxPoint x="1340" y="130" as="sourcePoint" />
            <mxPoint x="1310" y="310" as="targetPoint" />
            <Array as="points">
              <mxPoint x="1375" y="370" />
            </Array>
          </mxGeometry>
        </mxCell>
        <mxCell id="Ty3WXSSOC5wYY1u0p2fO-30" value="" style="endArrow=none;html=1;rounded=0;entryX=0.5;entryY=1;entryDx=0;entryDy=0;exitX=0;exitY=0.5;exitDx=0;exitDy=0;exitPerimeter=0;" edge="1" parent="1" source="iRxltRBxoJt_cw-Zhl7R-50" target="Ty3WXSSOC5wYY1u0p2fO-21">
          <mxGeometry width="50" height="50" relative="1" as="geometry">
            <mxPoint x="1270" y="490" as="sourcePoint" />
            <mxPoint x="1320" y="440" as="targetPoint" />
            <Array as="points">
              <mxPoint x="1460" y="410" />
            </Array>
          </mxGeometry>
        </mxCell>
        <mxCell id="Ty3WXSSOC5wYY1u0p2fO-31" value="" style="endArrow=none;html=1;rounded=0;entryX=0.5;entryY=1;entryDx=0;entryDy=0;exitX=0;exitY=0.5;exitDx=0;exitDy=0;exitPerimeter=0;" edge="1" parent="1" source="iRxltRBxoJt_cw-Zhl7R-51" target="Ty3WXSSOC5wYY1u0p2fO-22">
          <mxGeometry width="50" height="50" relative="1" as="geometry">
            <mxPoint x="1300" y="630" as="sourcePoint" />
            <mxPoint x="1350" y="580" as="targetPoint" />
            <Array as="points">
              <mxPoint x="1460" y="660" />
            </Array>
          </mxGeometry>
        </mxCell>
        <mxCell id="Ty3WXSSOC5wYY1u0p2fO-32" value="" style="endArrow=none;html=1;rounded=0;entryX=0;entryY=0.5;entryDx=0;entryDy=0;exitX=0.5;exitY=1;exitDx=0;exitDy=0;" edge="1" parent="1" source="iRxltRBxoJt_cw-Zhl7R-46" target="Ty3WXSSOC5wYY1u0p2fO-22">
          <mxGeometry width="50" height="50" relative="1" as="geometry">
            <mxPoint x="1360" y="-30" as="sourcePoint" />
            <mxPoint x="1320" y="550" as="targetPoint" />
            <Array as="points">
              <mxPoint x="1375" y="607" />
            </Array>
          </mxGeometry>
        </mxCell>
        <mxCell id="Ty3WXSSOC5wYY1u0p2fO-33" value="Стадион" style="rounded=0;whiteSpace=wrap;html=1;" vertex="1" parent="1">
          <mxGeometry x="1400" y="675" width="120" height="40" as="geometry" />
        </mxCell>
        <mxCell id="Ty3WXSSOC5wYY1u0p2fO-34" value="Судья" style="rounded=0;whiteSpace=wrap;html=1;" vertex="1" parent="1">
          <mxGeometry x="1400" y="745" width="120" height="40" as="geometry" />
        </mxCell>
        <mxCell id="Ty3WXSSOC5wYY1u0p2fO-35" value="" style="endArrow=none;html=1;rounded=0;entryX=0.5;entryY=1;entryDx=0;entryDy=0;exitX=0;exitY=0.5;exitDx=0;exitDy=0;exitPerimeter=0;" edge="1" parent="1" source="iRxltRBxoJt_cw-Zhl7R-52" target="Ty3WXSSOC5wYY1u0p2fO-33">
          <mxGeometry width="50" height="50" relative="1" as="geometry">
            <mxPoint x="1250" y="800" as="sourcePoint" />
            <mxPoint x="1300" y="750" as="targetPoint" />
            <Array as="points">
              <mxPoint x="1460" y="730" />
            </Array>
          </mxGeometry>
        </mxCell>
        <mxCell id="Ty3WXSSOC5wYY1u0p2fO-36" value="" style="endArrow=none;html=1;rounded=0;entryX=0.5;entryY=1;entryDx=0;entryDy=0;exitX=0;exitY=0.5;exitDx=0;exitDy=0;exitPerimeter=0;" edge="1" parent="1" source="iRxltRBxoJt_cw-Zhl7R-53" target="Ty3WXSSOC5wYY1u0p2fO-34">
          <mxGeometry width="50" height="50" relative="1" as="geometry">
            <mxPoint x="1280" y="850" as="sourcePoint" />
            <mxPoint x="1330" y="800" as="targetPoint" />
            <Array as="points">
              <mxPoint x="1460" y="800" />
            </Array>
          </mxGeometry>
        </mxCell>
        <mxCell id="Ty3WXSSOC5wYY1u0p2fO-37" value="" style="endArrow=none;html=1;rounded=0;exitX=0;exitY=0.5;exitDx=0;exitDy=0;entryX=0.5;entryY=1;entryDx=0;entryDy=0;" edge="1" parent="1" source="Ty3WXSSOC5wYY1u0p2fO-33" target="iRxltRBxoJt_cw-Zhl7R-46">
          <mxGeometry width="50" height="50" relative="1" as="geometry">
            <mxPoint x="1230" y="750" as="sourcePoint" />
            <mxPoint x="1280" y="700" as="targetPoint" />
            <Array as="points">
              <mxPoint x="1375" y="695" />
            </Array>
          </mxGeometry>
        </mxCell>
        <mxCell id="Ty3WXSSOC5wYY1u0p2fO-38" value="" style="endArrow=none;html=1;rounded=0;entryX=0;entryY=0.5;entryDx=0;entryDy=0;exitX=0.5;exitY=1;exitDx=0;exitDy=0;" edge="1" parent="1" source="iRxltRBxoJt_cw-Zhl7R-46" target="Ty3WXSSOC5wYY1u0p2fO-34">
          <mxGeometry width="50" height="50" relative="1" as="geometry">
            <mxPoint x="1270" y="750" as="sourcePoint" />
            <mxPoint x="1320" y="700" as="targetPoint" />
            <Array as="points">
              <mxPoint x="1375" y="765" />
            </Array>
          </mxGeometry>
        </mxCell>
        <mxCell id="Ty3WXSSOC5wYY1u0p2fO-40" value="Игрок" style="rounded=0;whiteSpace=wrap;html=1;" vertex="1" parent="1">
          <mxGeometry x="1360" y="955" width="120" height="40" as="geometry" />
        </mxCell>
        <mxCell id="Ty3WXSSOC5wYY1u0p2fO-41" value="Матч" style="rounded=0;whiteSpace=wrap;html=1;" vertex="1" parent="1">
          <mxGeometry x="1360" y="1080" width="120" height="40" as="geometry" />
        </mxCell>
        <mxCell id="Ty3WXSSOC5wYY1u0p2fO-43" value="" style="endArrow=none;html=1;rounded=0;entryX=0.5;entryY=1;entryDx=0;entryDy=0;exitX=0;exitY=0.5;exitDx=0;exitDy=0;" edge="1" parent="1" source="Ty3WXSSOC5wYY1u0p2fO-40" target="iRxltRBxoJt_cw-Zhl7R-222">
          <mxGeometry width="50" height="50" relative="1" as="geometry">
            <mxPoint x="1280" y="1030" as="sourcePoint" />
            <mxPoint x="1330" y="980" as="targetPoint" />
            <Array as="points">
              <mxPoint x="1325" y="975" />
            </Array>
          </mxGeometry>
        </mxCell>
        <mxCell id="Ty3WXSSOC5wYY1u0p2fO-44" value="" style="endArrow=none;html=1;rounded=0;entryX=0;entryY=0.5;entryDx=0;entryDy=0;exitX=0.5;exitY=1;exitDx=0;exitDy=0;" edge="1" parent="1" source="iRxltRBxoJt_cw-Zhl7R-222" target="Ty3WXSSOC5wYY1u0p2fO-41">
          <mxGeometry width="50" height="50" relative="1" as="geometry">
            <mxPoint x="1240" y="1090" as="sourcePoint" />
            <mxPoint x="1290" y="1040" as="targetPoint" />
            <Array as="points">
              <mxPoint x="1325" y="1100" />
            </Array>
          </mxGeometry>
        </mxCell>
        <mxCell id="Ty3WXSSOC5wYY1u0p2fO-45" value="" style="endArrow=none;html=1;rounded=0;entryX=0.5;entryY=1;entryDx=0;entryDy=0;exitX=0;exitY=0.5;exitDx=0;exitDy=0;exitPerimeter=0;" edge="1" parent="1" source="iRxltRBxoJt_cw-Zhl7R-208" target="Ty3WXSSOC5wYY1u0p2fO-40">
          <mxGeometry width="50" height="50" relative="1" as="geometry">
            <mxPoint x="1180" y="1060" as="sourcePoint" />
            <mxPoint x="1230" y="1010" as="targetPoint" />
            <Array as="points">
              <mxPoint x="1420" y="1010" />
            </Array>
          </mxGeometry>
        </mxCell>
        <mxCell id="Ty3WXSSOC5wYY1u0p2fO-46" value="" style="endArrow=none;html=1;rounded=0;entryX=0.5;entryY=1;entryDx=0;entryDy=0;exitX=0;exitY=0.5;exitDx=0;exitDy=0;exitPerimeter=0;" edge="1" parent="1" source="iRxltRBxoJt_cw-Zhl7R-213" target="Ty3WXSSOC5wYY1u0p2fO-41">
          <mxGeometry width="50" height="50" relative="1" as="geometry">
            <mxPoint x="1380" y="1200" as="sourcePoint" />
            <mxPoint x="1430" y="1150" as="targetPoint" />
            <Array as="points">
              <mxPoint x="1420" y="1150" />
            </Array>
          </mxGeometry>
        </mxCell>
      </root>
    </mxGraphModel>
  </diagram>
</mxfile>
